<?xml version="1.0" encoding="utf-8"?>
<!-- Generator: Adobe Illustrator 26.0.3, SVG Export Plug-In . SVG Version: 6.00 Build 0)  -->
<svg version="1.1" id="Layer_1" xmlns="http://www.w3.org/2000/svg" xmlns:xlink="http://www.w3.org/1999/xlink" x="0px" y="0px"
	 width="10px" height="10px" viewBox="0 0 10 10" style="enable-background:new 0 0 10 10;" xml:space="preserve">
<g>
	<path d="M10,4.74C8.8,5.11,7.54,5.39,6.22,5.57c0.47,0.42,1.35,1.38,2.63,2.86l-1.83,1.3c-0.6-0.8-1.29-1.88-2.07-3.25
		c-0.74,1.4-1.4,2.49-1.98,3.25L1.2,8.43C2.68,6.65,3.51,5.7,3.71,5.57C2.24,5.27,1.01,5,0,4.74l0.71-2.16
		c1.84,0.68,3,1.17,3.5,1.48C4,2.31,3.9,1.05,3.9,0.27h2.16c0,0.93-0.09,2.06-0.27,3.4C5.74,3.75,5.72,3.86,5.72,4.02
		c0.96-0.47,2.15-0.96,3.57-1.45L10,4.74z"/>
</g>
</svg>
