<?xml version="1.0" encoding="utf-8"?>
<!-- Generator: Adobe Illustrator 26.0.3, SVG Export Plug-In . SVG Version: 6.00 Build 0)  -->
<svg version="1.1" id="Layer_1" xmlns="http://www.w3.org/2000/svg" xmlns:xlink="http://www.w3.org/1999/xlink" x="0px" y="0px"
	 width="100px" height="100px" viewBox="0 0 100 100" style="enable-background:new 0 0 100 100;" xml:space="preserve">
<style type="text/css">
	.st0{fill:none;stroke:#000000;stroke-width:0.2178;stroke-miterlimit:10;}
</style>
<path class="st0" d="M86.9,2H13.1c-0.7,0-1.4,0.1-2,0.2V8c0,2.7,2.2,4.9,4.9,4.9h67.9c2.7,0,4.9-2.2,4.9-4.9V2.2
	C88.2,2.1,87.6,2,86.9,2z"/>
<path class="st0" d="M86.9,98H13.1C7,98,2,93,2,86.9V13.1C2,7,7,2,13.1,2h73.8C93,2,98,7,98,13.1v73.8C98,93,93,98,86.9,98z"/>
<g>
	<path d="M15.8,7.6c-0.2-0.1-0.3-0.3-0.5-0.6S15.1,6.5,15,6.3c-0.1,0.2-0.2,0.5-0.3,0.7c-0.2,0.3-0.3,0.5-0.5,0.6L14,7.4
		c0.2-0.2,0.4-0.4,0.6-0.8c0.2-0.3,0.2-0.7,0.2-1.1V5.4h-0.7V5h1.7v0.3h-0.7v0.2c0,0.3,0.1,0.7,0.3,1c0.2,0.3,0.4,0.6,0.6,0.7
		L15.8,7.6z M14.7,9.5V7.9h0.3v1.3h1.9v0.3H14.7z M16.4,8.3V6.4h-0.8V6h0.8V4.8h0.3v3.5C16.7,8.3,16.4,8.3,16.4,8.3z"/>
	<path d="M19.6,8.3c-0.2,0-0.3,0.1-0.5,0.1h-1.7V8.1H18l0-2.1h0.3l0,2.1h0.6l0-2.1h0.3l0,2.1c0.3,0,0.4,0,0.5-0.1L19.6,8.3z
		 M17.6,5.5V5.2h1.9v0.3H17.6z M20.1,7.1l0,2.6h-0.3V4.8h0.3v2h0.5v0.3C20.6,7.1,20.1,7.1,20.1,7.1z"/>
	<path d="M21.3,7.1V4.9h0.3v0.8h1V4.9h0.3v0.9h0.6V4.8h0.3v2.5h-0.3V6.2h-0.6v0.9H21.3z M22.6,6.1h-1v0.7h1V6.1z M21.7,9.6v-2h0.3
		v0.7h1.5V7.6h0.3v2H21.7z M23.5,8.6h-1.5v0.6h1.5V8.6z"/>
	<path d="M25,10.1c-0.4-0.6-0.5-1.4-0.5-2.3c0-0.9,0.2-1.7,0.5-2.3h0.2c-0.4,0.7-0.5,1.4-0.5,2.3c0,0.9,0.2,1.6,0.5,2.3L25,10.1
		L25,10.1z"/>
	<path d="M27,8.6c-0.3-0.4-0.5-0.9-0.6-1.5c0,0.2-0.1,0.5-0.2,0.8s-0.3,0.6-0.4,0.8l-0.2-0.2c0.2-0.2,0.4-0.5,0.5-1
		c0.1-0.4,0.2-0.9,0.2-1.3V5.6h-0.6V5.2h1.5v0.3h-0.6v0.6c0,0.4,0.1,0.8,0.2,1.2c0.1,0.4,0.3,0.7,0.5,1L27,8.6z M27.5,9.6V6.8h-0.6
		V6.5h0.6V4.9h0.3v4.7H27.5z M28.1,9.7V4.8h0.3v4.9H28.1z"/>
	<path d="M30.3,5.5V8h0.3v0.4h-0.3v0.9H30V8.3h-1.2V8c0.2-0.4,0.5-0.8,0.7-1.3c0.2-0.4,0.4-0.8,0.5-1.2L30.3,5.5L30.3,5.5z M29.1,8
		H30V6.1c-0.2,0.6-0.4,1.1-0.7,1.5L29.1,8z"/>
	<path d="M32.5,5.7c-0.3,0.7-0.5,1.4-0.6,1.9c-0.2,0.6-0.2,1.1-0.3,1.6h-0.3c0-0.3,0.1-0.6,0.2-1c0.1-0.4,0.2-0.7,0.3-1.1
		c0.1-0.4,0.3-0.8,0.4-1.3h-1.3V5.5h1.6V5.7z"/>
	<path d="M32.9,8.9V8.6h1.4V7.4h0.3v1.2h1.4v0.3H32.9z M34.5,5.6L34.5,5.6c0,0.3,0.1,0.6,0.3,1c0.2,0.3,0.5,0.6,0.9,0.7l-0.2,0.3
		c-0.3-0.1-0.5-0.3-0.8-0.6c-0.2-0.3-0.4-0.5-0.5-0.8c-0.1,0.2-0.2,0.5-0.5,0.8s-0.5,0.5-0.7,0.6L33,7.3c0.4-0.1,0.7-0.3,0.9-0.7
		c0.2-0.3,0.4-0.7,0.4-1v0h-1.1V5.2h2.4v0.3C35.6,5.6,34.5,5.6,34.5,5.6z"/>
	<path d="M36.4,8.8l0-0.3c0.3,0,0.7,0,1.2,0c0.5,0,0.9,0,1-0.1l0,0.3c-0.2,0-0.5,0-1.1,0.1C37.1,8.8,36.7,8.8,36.4,8.8z M37.5,7.5
		c-0.2,0-0.5-0.1-0.6-0.3s-0.3-0.5-0.3-0.8c0-0.3,0.1-0.6,0.2-0.8s0.4-0.3,0.6-0.3c0.2,0,0.5,0.1,0.6,0.3c0.2,0.2,0.2,0.5,0.2,0.8
		c0,0.3-0.1,0.6-0.2,0.8S37.7,7.5,37.5,7.5z M37.5,5.5c-0.2,0-0.3,0.1-0.4,0.2s-0.2,0.4-0.2,0.6c0,0.2,0.1,0.4,0.2,0.6
		c0.1,0.2,0.3,0.2,0.4,0.2c0.2,0,0.3-0.1,0.4-0.2c0.1-0.2,0.2-0.4,0.2-0.6S38,5.9,37.9,5.7S37.7,5.5,37.5,5.5z M38.9,9.7V4.8h0.3
		v4.9H38.9z"/>
	<path d="M41,6.5c0-0.2,0-0.4-0.1-0.5c-0.1-0.1-0.2-0.2-0.4-0.2c-0.1,0-0.2,0-0.3,0.1S40,6.1,39.9,6.2V5.8c0.2-0.2,0.4-0.4,0.6-0.4
		c0.2,0,0.4,0.1,0.5,0.3c0.1,0.2,0.2,0.4,0.2,0.7c0,0.3,0,0.5-0.1,0.7s-0.2,0.4-0.4,0.6c-0.2,0.2-0.3,0.4-0.4,0.5s-0.1,0.2-0.2,0.3
		c0,0.1,0,0.2,0,0.3h1.2v0.4h-1.5V9.1c0-0.2,0-0.4,0.1-0.5c0-0.1,0.1-0.3,0.2-0.4c0.1-0.1,0.2-0.3,0.4-0.5c0.2-0.2,0.3-0.4,0.4-0.5
		C41,6.9,41,6.7,41,6.5z"/>
	<path d="M41.6,10.1c0.4-0.6,0.5-1.4,0.5-2.3S42,6.2,41.6,5.5h0.2c0.4,0.6,0.5,1.4,0.5,2.3c0,0.9-0.2,1.7-0.5,2.3L41.6,10.1
		L41.6,10.1z"/>
	<path d="M44.4,6.9c0,0.5-0.1,0.9-0.2,1.1c-0.1,0.3-0.3,0.4-0.5,0.4c-0.2,0-0.4-0.1-0.5-0.4C43,7.7,43,7.3,43,6.8s0.1-1,0.2-1.2
		c0.1-0.3,0.3-0.4,0.5-0.4c0.2,0,0.4,0.1,0.5,0.4c0.1,0.3,0.2,0.6,0.2,1.1h0.4V4.9h0.3v4.7h-0.3V6.9L44.4,6.9L44.4,6.9z M43.7,5.5
		c-0.2,0-0.3,0.1-0.4,0.3c-0.1,0.2-0.1,0.6-0.1,1s0,0.8,0.1,1c0.1,0.2,0.2,0.3,0.4,0.3C43.8,8.1,44,8,44,7.8c0.1-0.2,0.1-0.6,0.1-1
		c0-0.4,0-0.8-0.1-1C44,5.6,43.8,5.5,43.7,5.5z M45.4,9.7V4.8h0.3v4.9H45.4z"/>
	<path d="M48.6,8.3c-0.2,0.1-0.5,0.1-0.9,0.1V5.2h0.8v0.3H48V8c0.3,0,0.5,0,0.6-0.1L48.6,8.3z M49.8,8.3c-0.2,0.1-0.5,0.1-1,0.1V5.2
		h0.9v0.3H49V8c0.3,0,0.6,0,0.7-0.1L49.8,8.3z M50.2,7.1v2.6h-0.3V4.8h0.3v2h0.6v0.3L50.2,7.1L50.2,7.1z"/>
	<path d="M51,7.9V7.5h3v0.3H51z M51.5,9.6V8.2h0.3v1h1.9v0.3C53.7,9.6,51.5,9.6,51.5,9.6z M51.6,7V5.8h1.8V5.3h-1.8V4.9h2v1.2h-1.8
		v0.5h1.9V7L51.6,7L51.6,7z"/>
	<path d="M57.6,7.6c-0.2-0.1-0.3-0.3-0.5-0.6s-0.2-0.4-0.3-0.6c-0.1,0.2-0.2,0.5-0.3,0.7c-0.2,0.3-0.3,0.5-0.5,0.6l-0.2-0.3
		C56,7.2,56.2,7,56.4,6.6c0.2-0.3,0.2-0.7,0.2-1.1V5.4h-0.7V5h1.7v0.3h-0.7v0.2c0,0.3,0.1,0.7,0.3,1c0.2,0.3,0.4,0.6,0.6,0.7
		L57.6,7.6z M56.4,9.5V7.9h0.3v1.3h1.9v0.3H56.4z M58.2,8.3V6.4h-0.8V6h0.8V4.8h0.3v3.5C58.5,8.3,58.2,8.3,58.2,8.3z"/>
	<path d="M61.1,8.5c-0.2-0.2-0.4-0.5-0.5-0.8c-0.2-0.3-0.3-0.6-0.3-0.8c-0.1,0.3-0.2,0.5-0.3,0.9c-0.2,0.3-0.3,0.6-0.5,0.8l-0.2-0.3
		c0.3-0.3,0.5-0.6,0.6-1s0.2-0.9,0.2-1.3V5.1h0.3v0.8c0,0.4,0.1,0.8,0.2,1.3c0.2,0.4,0.4,0.7,0.6,1L61.1,8.5z M61.8,7.1v2.6h-0.3
		V4.8h0.3v2h0.6v0.3H61.8z"/>
	<path d="M64.9,8.3c-0.2,0-0.3,0.1-0.5,0.1h-1.7V8.1h0.5l0-2.1h0.3l0,2.1h0.6l0-2.1h0.3l0,2.1c0.3,0,0.4,0,0.5-0.1L64.9,8.3z
		 M62.8,5.5V5.2h1.9v0.3H62.8z M65.3,7.1l0,2.6h-0.3V4.8h0.3v2h0.5v0.3C65.9,7.1,65.3,7.1,65.3,7.1z"/>
	<path d="M67.5,7.8V7.5h3v0.3H67.5z M67.8,5.5V5.2h1.1V4.7h0.3v0.5h1.1v0.3L67.8,5.5L67.8,5.5z M69,7.1c-0.3,0-0.6-0.1-0.8-0.2
		c-0.2-0.1-0.3-0.3-0.3-0.5c0-0.2,0.1-0.4,0.3-0.5c0.2-0.1,0.4-0.2,0.8-0.2c0.3,0,0.6,0.1,0.8,0.2C70,6,70.1,6.2,70.1,6.4
		c0,0.2-0.1,0.4-0.3,0.5C69.6,7.1,69.3,7.1,69,7.1z M67.9,9.7V8.1h0.3v0.5h1.6V8.1h0.3v1.6H67.9z M69.8,8.9h-1.6v0.4h1.6V8.9z M69,6
		c-0.3,0-0.5,0-0.6,0.1c-0.1,0.1-0.2,0.2-0.2,0.3c0,0.1,0.1,0.2,0.2,0.3c0.1,0.1,0.3,0.1,0.6,0.1c0.3,0,0.5,0,0.6-0.1
		c0.1-0.1,0.2-0.2,0.2-0.3s-0.1-0.2-0.2-0.3C69.4,6,69.2,6,69,6z"/>
	<path d="M72.6,7.7v2h-0.3v-2h-1.4V7.4h3v0.3H72.6z M73.7,6.8c-0.3-0.1-0.5-0.2-0.8-0.4c-0.2-0.2-0.4-0.4-0.5-0.6
		C72.4,6,72.2,6.2,72,6.4c-0.2,0.2-0.5,0.4-0.8,0.4l-0.2-0.3C71.4,6.5,71.7,6.3,72,6c0.3-0.3,0.4-0.6,0.4-0.9V4.9h0.3v0.2
		c0,0.3,0.1,0.6,0.4,0.9c0.2,0.3,0.5,0.4,0.9,0.5L73.7,6.8z"/>
	<path d="M74.9,9.7V8.6h1.8V8.1h-1.8V7.8h0.4V7.3h-0.9V7h3v0.3h-0.9v0.5H77v1.1h-1.8v0.5h1.9v0.3L74.9,9.7L74.9,9.7z M76,6.5
		c-0.3,0-0.6-0.1-0.8-0.2c-0.2-0.2-0.3-0.4-0.3-0.6c0-0.3,0.1-0.5,0.3-0.6c0.2-0.2,0.4-0.2,0.8-0.2c0.3,0,0.6,0.1,0.8,0.2
		C76.9,5.2,77,5.4,77,5.7c0,0.3-0.1,0.5-0.3,0.6S76.3,6.5,76,6.5z M76,5.1c-0.3,0-0.4,0.1-0.6,0.2c-0.1,0.1-0.2,0.2-0.2,0.4
		c0,0.2,0.1,0.3,0.2,0.4s0.3,0.2,0.6,0.2c0.2,0,0.4-0.1,0.6-0.2c0.1-0.1,0.2-0.2,0.2-0.4c0-0.2-0.1-0.3-0.2-0.4
		C76.4,5.2,76.2,5.1,76,5.1z M76.4,7.8V7.3h-0.8v0.5H76.4z"/>
	<path d="M79.2,7.5V7.1h3v0.3H79.2z M80.7,9.7c-0.3,0-0.6-0.1-0.8-0.2c-0.2-0.2-0.3-0.4-0.3-0.7s0.1-0.5,0.3-0.7
		c0.2-0.2,0.4-0.2,0.8-0.2s0.6,0.1,0.8,0.2c0.2,0.2,0.3,0.4,0.3,0.7s-0.1,0.5-0.3,0.7C81.3,9.6,81,9.7,80.7,9.7z M79.7,6.6V4.9h2
		v0.3h-1.8v1h1.8v0.3C81.7,6.6,79.7,6.6,79.7,6.6z M80.7,8.2c-0.3,0-0.5,0.1-0.6,0.2s-0.2,0.2-0.2,0.4s0.1,0.3,0.2,0.4
		c0.1,0.1,0.3,0.2,0.6,0.2s0.5-0.1,0.6-0.2c0.1-0.1,0.2-0.2,0.2-0.4s-0.1-0.3-0.2-0.4C81.2,8.2,81,8.2,80.7,8.2z"/>
	<path d="M82.7,7.1V6.7h2.3c0-0.3,0-0.8,0-1.4h-1.8V5h2.1c0,0.8,0,1.4,0,1.8h0.5v0.3H82.7z M83.2,9.6v-2h0.3v0.7h1.5V7.6h0.3v2H83.2
		z M84.9,8.6h-1.5v0.6h1.5V8.6z"/>
</g>
<g>
	<path d="M6.4,66.8c-0.2,0-0.4-0.1-0.5-0.2c-0.1-0.1-0.2-0.3-0.2-0.5c0-0.2,0.1-0.4,0.2-0.5c0.1-0.1,0.3-0.2,0.5-0.2
		c0.2,0,0.4,0.1,0.5,0.2C7,65.7,7.1,65.8,7.1,66c0,0.2-0.1,0.4-0.2,0.5S6.6,66.8,6.4,66.8z"/>
	<path d="M9.4,66.2V66h1.4v-0.7H9.9v-1.9h0.2v0.6h1.6v-0.6h0.2v1.9H11V66h1.4v0.3H9.4z M9.9,68v-1.4h0.2v1.1H12V68H9.9z M11.7,64.3
		h-1.6V65h1.6V64.3z"/>
	<path d="M15.8,65.7c-0.2,0-0.4,0-0.7,0c-0.3,0-0.6,0-1,0v-2.3h1.5v0.3h-1.3v1.7c0.3,0,0.6,0,0.9,0c0.2,0,0.4,0,0.6,0L15.8,65.7z
		 M14.4,68v-1.6h0.2v1.3h1.9V68H14.4z M16.4,65.1v1.8h-0.2v-3.6h0.2v1.6h0.5v0.3L16.4,65.1L16.4,65.1z"/>
	<path d="M17.5,65.4v-2H19v2H17.5z M18.8,63.7h-1.1v1.5h1.1V63.7z M17.9,68.1v-1.2h1.8v-0.6h-1.8V66h2v1.1h-1.8v0.7H20v0.2
		L17.9,68.1L17.9,68.1z M19.9,64.7v1.1h-0.2v-2.5h0.2v1.2h0.5v0.3H19.9z"/>
	<path d="M22.6,63.7c0,0.4-0.1,0.7-0.1,1c-0.1,0.3-0.2,0.6-0.3,0.9s-0.3,0.5-0.5,0.7c-0.2,0.2-0.4,0.4-0.6,0.6l-0.2-0.2
		c0.2-0.1,0.4-0.3,0.5-0.5c0.2-0.2,0.3-0.4,0.4-0.6c0.1-0.2,0.2-0.5,0.3-0.8c0.1-0.3,0.1-0.6,0.2-0.9h-1.3v-0.3H22.6z M23.3,68.2
		v-4.9h0.2v4.9H23.3z"/>
	<path d="M24.3,67c0.1,0,0.3,0,0.5,0c0.2,0,0.4,0,0.7,0c0.3,0,0.5,0,0.7,0s0.3,0,0.4,0l0,0.3c0,0-0.1,0-0.2,0c-0.1,0-0.1,0-0.2,0
		c-0.1,0-0.2,0-0.3,0c-0.1,0-0.2,0-0.4,0c-0.3,0-0.5,0-0.7,0c-0.2,0-0.4,0-0.5,0L24.3,67z M25.4,66c-0.1,0-0.2,0-0.3-0.1
		c-0.1-0.1-0.2-0.1-0.3-0.2c-0.1-0.1-0.1-0.2-0.2-0.4c0-0.1-0.1-0.3-0.1-0.5s0-0.3,0.1-0.5s0.1-0.3,0.2-0.4s0.2-0.2,0.3-0.2
		c0.1-0.1,0.2-0.1,0.3-0.1c0.1,0,0.2,0,0.3,0.1c0.1,0.1,0.2,0.1,0.3,0.2c0.1,0.1,0.1,0.2,0.2,0.4c0,0.1,0.1,0.3,0.1,0.5
		s0,0.3-0.1,0.5c0,0.1-0.1,0.3-0.2,0.4c-0.1,0.1-0.2,0.2-0.3,0.2C25.7,65.9,25.5,66,25.4,66z M25.4,63.9c-0.1,0-0.2,0-0.3,0.1
		c-0.1,0-0.2,0.1-0.2,0.2c-0.1,0.1-0.1,0.2-0.1,0.3c0,0.1-0.1,0.2-0.1,0.4c0,0.1,0,0.3,0.1,0.4s0.1,0.2,0.1,0.3
		c0.1,0.1,0.1,0.1,0.2,0.2c0.1,0,0.2,0.1,0.3,0.1c0.1,0,0.2,0,0.3-0.1c0.1,0,0.2-0.1,0.2-0.2s0.1-0.2,0.1-0.3c0-0.1,0.1-0.2,0.1-0.4
		c0-0.1,0-0.3-0.1-0.4s-0.1-0.2-0.1-0.3c-0.1-0.1-0.1-0.1-0.2-0.2C25.6,63.9,25.5,63.9,25.4,63.9z M26.9,68.2v-4.9h0.2v4.9H26.9z"/>
	<path d="M30.6,66c-0.1-0.1-0.1-0.1-0.2-0.2c-0.1-0.1-0.2-0.2-0.2-0.3c-0.1-0.1-0.1-0.2-0.2-0.4c-0.1-0.1-0.1-0.2-0.1-0.4
		c0,0.1-0.1,0.3-0.1,0.4c-0.1,0.1-0.1,0.3-0.2,0.4c-0.1,0.1-0.1,0.2-0.2,0.3s-0.2,0.2-0.2,0.2l-0.1-0.2c0.1-0.1,0.2-0.2,0.3-0.3
		c0.1-0.1,0.2-0.3,0.3-0.4c0.1-0.2,0.1-0.3,0.2-0.5c0-0.2,0.1-0.4,0.1-0.6v-0.3h-0.7v-0.3h1.7v0.3h-0.7v0.3c0,0.1,0,0.3,0,0.4
		c0,0.1,0.1,0.2,0.1,0.4c0,0.1,0.1,0.2,0.1,0.3c0.1,0.1,0.1,0.2,0.2,0.3c0.1,0.1,0.1,0.2,0.2,0.2c0.1,0.1,0.1,0.1,0.2,0.2L30.6,66z
		 M29.5,68v-1.6h0.2v1.3h1.9V68L29.5,68L29.5,68z M31.3,66.7v-1.9h-0.8v-0.3h0.8v-1.3h0.2v3.5H31.3z"/>
	<path d="M34.1,66.9c-0.1-0.1-0.2-0.2-0.3-0.3c-0.1-0.1-0.2-0.3-0.2-0.4c-0.1-0.1-0.1-0.3-0.2-0.5c-0.1-0.2-0.1-0.3-0.1-0.5
		c0,0.2-0.1,0.3-0.1,0.5c-0.1,0.2-0.1,0.3-0.2,0.5c-0.1,0.2-0.2,0.3-0.2,0.4s-0.2,0.3-0.3,0.4l-0.2-0.2c0.1-0.1,0.2-0.3,0.3-0.4
		c0.1-0.2,0.2-0.4,0.3-0.6s0.1-0.4,0.2-0.7s0.1-0.5,0.1-0.7v-0.8h0.2v0.8c0,0.2,0,0.5,0.1,0.7c0,0.2,0.1,0.4,0.2,0.6
		c0.1,0.2,0.2,0.4,0.3,0.5s0.2,0.3,0.3,0.4L34.1,66.9z M34.8,65.5v2.6h-0.2v-4.9h0.2v2h0.6v0.3H34.8z"/>
	<path d="M37.9,66.8c-0.1,0-0.2,0-0.2,0c-0.1,0-0.2,0-0.3,0h-1.7v-0.3h0.5l0-2.2h0.2l0,2.2h0.7l0.1-2.2h0.2l-0.1,2.2
		c0.1,0,0.2,0,0.3,0c0.1,0,0.2,0,0.2,0L37.9,66.8z M35.8,63.9v-0.3h1.9v0.3H35.8z M38.3,65.6v2.6h-0.2v-4.9h0.2v2.1h0.5v0.3H38.3z"
		/>
	<path d="M41.3,65.9c-0.1,0-0.2,0-0.3-0.1s-0.2-0.1-0.3-0.3c-0.1-0.1-0.1-0.2-0.2-0.4c0-0.1-0.1-0.3-0.1-0.5c0-0.2,0-0.3,0.1-0.5
		c0-0.2,0.1-0.3,0.2-0.4s0.2-0.2,0.3-0.2c0.1-0.1,0.2-0.1,0.3-0.1c0.1,0,0.2,0,0.3,0.1c0.1,0.1,0.2,0.1,0.3,0.2
		c0.1,0.1,0.1,0.2,0.2,0.4c0,0.1,0.1,0.3,0.1,0.5c0,0.2,0,0.3-0.1,0.5c0,0.1-0.1,0.3-0.2,0.4c-0.1,0.1-0.2,0.2-0.3,0.3
		C41.6,65.9,41.4,65.9,41.3,65.9z M41.3,63.7c-0.1,0-0.2,0-0.3,0.1c-0.1,0-0.1,0.1-0.2,0.2c-0.1,0.1-0.1,0.2-0.1,0.3
		c0,0.1,0,0.2,0,0.4c0,0.1,0,0.3,0,0.4c0,0.1,0.1,0.2,0.1,0.3c0.1,0.1,0.1,0.2,0.2,0.2c0.1,0,0.2,0.1,0.3,0.1c0.1,0,0.2,0,0.3-0.1
		c0.1,0,0.1-0.1,0.2-0.2c0.1-0.1,0.1-0.2,0.1-0.3c0-0.1,0-0.3,0-0.4c0-0.1,0-0.3,0-0.4s-0.1-0.2-0.1-0.3c-0.1-0.1-0.1-0.2-0.2-0.2
		C41.5,63.8,41.4,63.7,41.3,63.7z M40.9,68v-1.6h0.2v1.3H43V68L40.9,68L40.9,68z M42.8,63.3h0.2v3.6h-0.2V63.3z"/>
	<path d="M45.2,66.9c-0.1-0.1-0.1-0.2-0.2-0.3c-0.1-0.1-0.1-0.2-0.2-0.3c-0.1-0.1-0.1-0.2-0.2-0.4c0-0.1-0.1-0.3-0.1-0.4
		c0,0.1-0.1,0.3-0.1,0.4c0,0.1-0.1,0.3-0.2,0.4c-0.1,0.1-0.1,0.3-0.2,0.4C44.1,66.9,44,67,43.9,67l-0.2-0.2c0.1-0.1,0.2-0.2,0.3-0.4
		c0.1-0.2,0.2-0.3,0.2-0.5c0.1-0.2,0.1-0.4,0.2-0.6c0-0.2,0.1-0.4,0.1-0.6v-0.5h-0.6V64h0.6v-0.7h0.2V64h0.6v0.3h-0.6v0.5
		c0,0.1,0,0.2,0,0.4c0,0.1,0,0.2,0.1,0.4c0,0.1,0.1,0.2,0.1,0.4c0,0.1,0.1,0.2,0.1,0.3c0.1,0.1,0.1,0.2,0.2,0.3
		c0.1,0.1,0.1,0.2,0.2,0.2L45.2,66.9z M45.7,68v-2.6h-0.6v-0.3h0.6v-1.8h0.2V68H45.7L45.7,68z M46.3,68.2v-4.9h0.2v4.9H46.3z"/>
	<path d="M48.2,66.2v-0.2h3v0.2H48.2z M48.5,63.9v-0.2h1.1v-0.4h0.2v0.4H51v0.2H48.5z M49.7,65.5c-0.4,0-0.6-0.1-0.8-0.2
		c-0.2-0.1-0.3-0.3-0.3-0.5s0.1-0.4,0.3-0.5c0.2-0.1,0.4-0.2,0.8-0.2c0.3,0,0.6,0.1,0.8,0.2c0.2,0.1,0.3,0.3,0.3,0.5
		c0,0.2-0.1,0.4-0.3,0.5C50.3,65.5,50.1,65.5,49.7,65.5z M48.7,68.1v-1.6h0.2V67h1.7v-0.5h0.2v1.6H48.7z M49.7,64.4
		c-0.1,0-0.3,0-0.4,0c-0.1,0-0.2,0.1-0.3,0.1c-0.1,0-0.1,0.1-0.2,0.2c0,0.1-0.1,0.1-0.1,0.2c0,0.1,0.1,0.3,0.2,0.3
		c0.1,0.1,0.4,0.1,0.6,0.1s0.5,0,0.6-0.1c0.1-0.1,0.2-0.2,0.2-0.3c0-0.1,0-0.1-0.1-0.2c0-0.1-0.1-0.1-0.2-0.2
		c-0.1,0-0.2-0.1-0.3-0.1C50,64.4,49.9,64.4,49.7,64.4z M50.6,67.3h-1.7v0.5h1.7V67.3z"/>
	<path d="M53.3,66.2v2h-0.2v-2h-1.4v-0.3h3v0.3H53.3z M54.5,65.2c-0.1,0-0.2,0-0.2-0.1c-0.1,0-0.2-0.1-0.3-0.1s-0.2-0.1-0.2-0.2
		c-0.1-0.1-0.2-0.1-0.2-0.2c-0.1-0.1-0.1-0.2-0.2-0.3c-0.1-0.1-0.1-0.2-0.1-0.3c0,0.1-0.1,0.2-0.1,0.3c-0.1,0.1-0.1,0.2-0.2,0.2
		c-0.1,0.1-0.1,0.2-0.2,0.2c-0.1,0.1-0.2,0.1-0.2,0.2s-0.2,0.1-0.2,0.1c-0.1,0-0.2,0.1-0.2,0.1L51.8,65c0.1,0,0.2,0,0.3-0.1
		s0.2-0.1,0.3-0.1c0.1-0.1,0.2-0.1,0.3-0.2c0.1-0.1,0.2-0.2,0.2-0.3c0.1-0.1,0.1-0.2,0.2-0.3c0-0.1,0.1-0.2,0.1-0.4v-0.2h0.2v0.2
		c0,0.1,0,0.3,0.1,0.4c0,0.1,0.1,0.2,0.2,0.3c0.1,0.1,0.1,0.2,0.2,0.3s0.2,0.2,0.3,0.2c0.1,0.1,0.2,0.1,0.3,0.1
		c0.1,0,0.2,0.1,0.3,0.1L54.5,65.2z"/>
	<path d="M55.7,68.1v-1h1.9v-0.5h-1.9v-0.2h0.4v-0.6h-0.9v-0.2h3v0.2h-0.9v0.6h0.4v1h-1.9v0.6h1.9v0.2H55.7z M56.7,65
		c-0.1,0-0.3,0-0.4,0c-0.1,0-0.2-0.1-0.3-0.2c-0.1-0.1-0.2-0.2-0.2-0.3s-0.1-0.2-0.1-0.4c0-0.1,0-0.3,0.1-0.4
		c0.1-0.1,0.1-0.2,0.2-0.3c0.1-0.1,0.2-0.1,0.3-0.2c0.1,0,0.3-0.1,0.4-0.1c0.1,0,0.3,0,0.4,0.1c0.1,0,0.2,0.1,0.3,0.2
		c0.1,0.1,0.2,0.2,0.2,0.3c0.1,0.1,0.1,0.2,0.1,0.4c0,0.1,0,0.3-0.1,0.4c-0.1,0.1-0.1,0.2-0.2,0.3c-0.1,0.1-0.2,0.1-0.3,0.2
		C57,65,56.9,65,56.7,65z M56.7,63.5c-0.1,0-0.2,0-0.4,0c-0.1,0-0.2,0.1-0.3,0.1c-0.1,0.1-0.1,0.1-0.2,0.2c0,0.1-0.1,0.2-0.1,0.3
		s0,0.2,0.1,0.3c0,0.1,0.1,0.1,0.2,0.2c0.1,0.1,0.2,0.1,0.3,0.1c0.1,0,0.2,0,0.4,0c0.1,0,0.2,0,0.4,0c0.1,0,0.2-0.1,0.3-0.1
		c0.1-0.1,0.1-0.1,0.2-0.2s0.1-0.2,0.1-0.3s0-0.2-0.1-0.3s-0.1-0.1-0.2-0.2c-0.1-0.1-0.2-0.1-0.3-0.1C57,63.5,56.8,63.5,56.7,63.5z
		 M56.3,66.3h0.9v-0.6h-0.9V66.3z"/>
	<path d="M58.7,66.1v-0.3h3v0.3H58.7z M60.2,65.3c-0.2,0-0.3,0-0.4-0.1c-0.1,0-0.2-0.1-0.3-0.2s-0.2-0.2-0.2-0.3
		c0-0.1-0.1-0.3-0.1-0.4c0-0.1,0-0.3,0.1-0.4c0-0.1,0.1-0.2,0.2-0.3s0.2-0.1,0.3-0.2c0.1,0,0.3-0.1,0.4-0.1c0.1,0,0.3,0,0.4,0.1
		c0.1,0,0.2,0.1,0.3,0.2c0.1,0.1,0.2,0.2,0.2,0.3c0.1,0.1,0.1,0.3,0.1,0.4c0,0.2,0,0.3-0.1,0.4C61.1,64.9,61,65,60.9,65
		c-0.1,0.1-0.2,0.1-0.3,0.2C60.5,65.3,60.4,65.3,60.2,65.3z M59.2,68v-1.3h0.2v1.1h1.9V68L59.2,68L59.2,68z M60.2,63.6
		c-0.1,0-0.3,0-0.4,0.1c-0.1,0-0.2,0.1-0.3,0.2c-0.1,0.1-0.1,0.1-0.2,0.2c0,0.1-0.1,0.2-0.1,0.3c0,0.1,0,0.2,0.1,0.3
		c0,0.1,0.1,0.2,0.2,0.2c0.1,0.1,0.2,0.1,0.3,0.2c0.1,0,0.2,0.1,0.4,0.1c0.1,0,0.3,0,0.4-0.1s0.2-0.1,0.3-0.2
		c0.1-0.1,0.1-0.1,0.2-0.2c0-0.1,0.1-0.2,0.1-0.3c0-0.1,0-0.2-0.1-0.3c0-0.1-0.1-0.2-0.2-0.2c-0.1-0.1-0.2-0.1-0.3-0.2
		S60.3,63.6,60.2,63.6z"/>
	<path d="M64.1,65.3v1.7c0.1,0,0.1,0,0.2,0c0.1,0,0.1,0,0.2,0c0.1,0,0.1,0,0.2,0c0.1,0,0.1,0,0.2,0s0.1,0,0.2,0c0.1,0,0.1,0,0.2,0
		l0,0.2c-0.2,0-0.3,0-0.5,0c-0.2,0-0.3,0-0.5,0c-0.1,0-0.2,0-0.3,0s-0.2,0-0.3,0c-0.1,0-0.2,0-0.3,0c-0.1,0-0.2,0-0.3,0l0-0.3
		c0.1,0,0.2,0,0.2,0c0.1,0,0.1,0,0.2,0c0.1,0,0.1,0,0.2,0c0.1,0,0.1,0,0.2,0v-1.7H64.1z M65,63.7c0,0.9,0,1.8-0.1,2.5l-0.2,0
		c0-0.1,0-0.1,0-0.2c0-0.1,0-0.2,0-0.3s0-0.3,0-0.4c0-0.1,0-0.3,0-0.4c0-0.1,0-0.3,0-0.4s0-0.3,0-0.4h-1.4v-0.3L65,63.7L65,63.7z
		 M65.8,65.5v2.6h-0.2v-4.9h0.2v2h0.5v0.3H65.8z"/>
	<path d="M66.7,64.1v-0.2h0.9v-0.6h0.2v0.6h0.9v0.2H66.7z M67.7,66.1c-0.1,0-0.2,0-0.3-0.1c-0.1,0-0.2-0.1-0.3-0.2s-0.1-0.2-0.2-0.3
		s-0.1-0.2-0.1-0.3c0-0.1,0-0.3,0.1-0.4c0-0.1,0.1-0.2,0.2-0.3c0.1-0.1,0.2-0.1,0.3-0.2c0.1,0,0.2-0.1,0.3-0.1c0.1,0,0.2,0,0.3,0.1
		c0.1,0,0.2,0.1,0.3,0.2c0.1,0.1,0.1,0.2,0.2,0.3c0,0.1,0.1,0.2,0.1,0.4c0,0.1,0,0.2-0.1,0.3c0,0.1-0.1,0.2-0.2,0.3
		C68.2,65.9,68.1,66,68,66C67.9,66,67.8,66.1,67.7,66.1z M67.7,64.7c-0.1,0-0.2,0-0.3,0c-0.1,0-0.1,0.1-0.2,0.1s-0.1,0.1-0.1,0.2
		c0,0.1,0,0.2,0,0.2s0,0.2,0,0.2c0,0.1,0.1,0.1,0.1,0.2s0.1,0.1,0.2,0.1c0.1,0,0.2,0,0.3,0c0.1,0,0.2,0,0.3,0c0.1,0,0.1-0.1,0.2-0.1
		c0.1,0,0.1-0.1,0.1-0.2c0-0.1,0-0.1,0-0.2c0-0.1,0-0.2,0-0.2c0-0.1-0.1-0.1-0.1-0.2s-0.1-0.1-0.2-0.1
		C67.9,64.7,67.8,64.7,67.7,64.7z M69,68.2v-1.4h-1.9v-0.3h2.1v1.7H69z M69.2,65v1.2H69v-3h0.2v1.5h0.5V65L69.2,65L69.2,65z"/>
	<path d="M71.9,63.7c0,0.4-0.1,0.7-0.1,1c-0.1,0.3-0.2,0.6-0.3,0.9c-0.1,0.3-0.3,0.5-0.5,0.7s-0.4,0.4-0.6,0.6l-0.2-0.2
		c0.2-0.1,0.4-0.3,0.5-0.5c0.2-0.2,0.3-0.4,0.4-0.6c0.1-0.2,0.2-0.5,0.3-0.8c0.1-0.3,0.1-0.6,0.2-0.9h-1.3v-0.3H71.9z M72.6,68.2
		v-4.9h0.2v4.9H72.6z"/>
	<path d="M74.1,68.1v-1H76v-0.5h-1.8v-0.2h0.9v-0.6h-1.4v-0.2h3v0.2h-1.4v0.6h0.9v1h-1.8v0.6h1.9v0.2L74.1,68.1L74.1,68.1z
		 M76.4,64.9c-0.1,0-0.2,0-0.2-0.1c-0.1,0-0.2-0.1-0.2-0.1c-0.1,0-0.2-0.1-0.2-0.2c-0.1-0.1-0.2-0.1-0.2-0.2
		c-0.1-0.1-0.1-0.2-0.2-0.2c-0.1-0.1-0.1-0.2-0.1-0.3c0,0.1-0.1,0.2-0.1,0.3c-0.1,0.1-0.1,0.2-0.2,0.2c-0.1,0.1-0.1,0.1-0.2,0.2
		c-0.1,0.1-0.2,0.1-0.2,0.2c-0.1,0-0.2,0.1-0.2,0.1s-0.2,0.1-0.2,0.1l-0.1-0.2c0.1,0,0.2,0,0.3-0.1s0.2-0.1,0.3-0.1s0.2-0.1,0.3-0.2
		c0.1-0.1,0.2-0.1,0.2-0.2c0.1-0.1,0.1-0.2,0.2-0.3c0-0.1,0.1-0.2,0.1-0.3v-0.1h0.2v0.1c0,0.1,0,0.2,0.1,0.3c0,0.1,0.1,0.2,0.2,0.3
		c0.1,0.1,0.1,0.2,0.2,0.2c0.1,0.1,0.2,0.1,0.3,0.2s0.2,0.1,0.3,0.1c0.1,0,0.2,0,0.3,0.1L76.4,64.9z"/>
	<path d="M78.9,65.8c-0.1-0.1-0.2-0.1-0.2-0.2c-0.1-0.1-0.2-0.2-0.2-0.3c-0.1-0.1-0.1-0.2-0.2-0.3c-0.1-0.1-0.1-0.2-0.1-0.3
		c0,0.1-0.1,0.3-0.1,0.4c-0.1,0.1-0.1,0.3-0.2,0.4c-0.1,0.1-0.1,0.2-0.2,0.3c-0.1,0.1-0.2,0.2-0.2,0.2l-0.2-0.2
		c0.1-0.1,0.2-0.2,0.3-0.3s0.2-0.3,0.3-0.4c0.1-0.2,0.1-0.3,0.2-0.5c0-0.2,0.1-0.4,0.1-0.6v-0.2h-0.7v-0.3h1.7v0.3h-0.7v0.2
		c0,0.2,0,0.4,0.1,0.5s0.1,0.3,0.2,0.5s0.2,0.3,0.3,0.4c0.1,0.1,0.2,0.2,0.3,0.3L78.9,65.8z M78.8,68.1c-0.2,0-0.3,0-0.5-0.1
		c-0.1,0-0.2-0.1-0.3-0.2c-0.1-0.1-0.2-0.2-0.2-0.3s-0.1-0.2-0.1-0.4c0-0.1,0-0.3,0.1-0.4c0-0.1,0.1-0.2,0.2-0.3s0.2-0.1,0.3-0.2
		c0.1,0,0.3-0.1,0.5-0.1c0.2,0,0.3,0,0.5,0.1c0.1,0,0.2,0.1,0.3,0.2c0.1,0.1,0.2,0.2,0.2,0.3s0.1,0.2,0.1,0.4c0,0.1,0,0.3-0.1,0.4
		c0,0.1-0.1,0.2-0.2,0.3c-0.1,0.1-0.2,0.1-0.3,0.2C79.1,68.1,79,68.1,78.8,68.1z M78.8,66.5c-0.2,0-0.3,0-0.4,0.1
		c-0.1,0-0.2,0.1-0.3,0.1S78,66.8,78,66.9c0,0.1-0.1,0.2-0.1,0.3c0,0.1,0,0.2,0.1,0.3c0,0.1,0.1,0.2,0.2,0.2s0.2,0.1,0.3,0.1
		c0.1,0,0.2,0.1,0.4,0.1s0.3,0,0.4-0.1c0.1,0,0.2-0.1,0.3-0.1s0.1-0.1,0.2-0.2c0-0.1,0.1-0.2,0.1-0.3c0-0.1,0-0.2-0.1-0.3
		c0-0.1-0.1-0.2-0.2-0.2s-0.2-0.1-0.3-0.1C79.1,66.5,78.9,66.5,78.8,66.5z M79.6,66.1v-1.5h-0.8v-0.3h0.8v-1.2h0.2v2.9L79.6,66.1
		L79.6,66.1z"/>
	<path d="M82.2,66v1.1h1.4v0.3h-3v-0.3H82V66h-0.9v-2.3h0.2v0.9H83v-0.9h0.2V66H82.2z M83,64.8h-1.7v1H83V64.8z"/>
	<path d="M84.1,66.1v-0.2h1.4v-0.6h-0.9v-1.8h2v0.2h-1.8v0.5h1.8v0.2h-1.8V65h1.9v0.2h-0.9v0.6h1.4v0.2H84.1z M85.6,68.1
		c-0.2,0-0.3,0-0.5-0.1s-0.2-0.1-0.3-0.2c-0.1-0.1-0.2-0.2-0.2-0.3c0-0.1-0.1-0.2-0.1-0.4c0-0.3,0.1-0.5,0.3-0.6
		c0.2-0.1,0.4-0.2,0.8-0.2s0.6,0.1,0.8,0.2s0.3,0.3,0.3,0.6c0,0.1,0,0.2-0.1,0.4c0,0.1-0.1,0.2-0.2,0.3c-0.1,0.1-0.2,0.1-0.3,0.2
		C85.9,68.1,85.8,68.1,85.6,68.1z M85.6,66.7c-0.3,0-0.5,0.1-0.6,0.2c-0.1,0.1-0.2,0.2-0.2,0.4s0.1,0.3,0.2,0.4
		c0.1,0.1,0.4,0.2,0.6,0.2s0.5-0.1,0.6-0.2c0.1-0.1,0.2-0.2,0.2-0.4s-0.1-0.3-0.2-0.4C86.1,66.8,85.9,66.7,85.6,66.7z"/>
	<path d="M89.4,65.9c-0.1-0.1-0.2-0.1-0.2-0.2c-0.1-0.1-0.2-0.2-0.2-0.3c-0.1-0.1-0.1-0.2-0.2-0.3c-0.1-0.1-0.1-0.2-0.1-0.4
		c0,0.1-0.1,0.3-0.1,0.4c-0.1,0.1-0.1,0.3-0.2,0.4c-0.1,0.1-0.1,0.2-0.2,0.3c-0.1,0.1-0.2,0.2-0.2,0.3l-0.2-0.2
		c0.1-0.1,0.2-0.2,0.3-0.3c0.1-0.1,0.2-0.3,0.3-0.4s0.1-0.3,0.2-0.5s0.1-0.4,0.1-0.5v-0.6h0.2V64c0,0.2,0,0.4,0.1,0.5
		c0,0.2,0.1,0.3,0.2,0.5c0.1,0.1,0.2,0.3,0.3,0.4c0.1,0.1,0.2,0.2,0.3,0.3L89.4,65.9z M88.3,68v-1.5h0.2v1.3h1.9V68H88.3z
		 M90.1,66.7v-3.5h0.2v3.5H90.1z"/>
	<path d="M92.7,66.4v1.8h-0.2v-1.8h-1.4v-0.3h3v0.3H92.7z M91.6,65.4v-2h0.2v0.7h1.7v-0.7h0.2v2H91.6z M93.4,64.4h-1.7v0.7h1.7V64.4
		z"/>
	<path d="M11.1,72c-0.1-0.1-0.1-0.1-0.2-0.2s-0.2-0.2-0.2-0.3c-0.1-0.1-0.1-0.2-0.2-0.4c-0.1-0.1-0.1-0.2-0.1-0.4
		c0,0.1-0.1,0.3-0.1,0.4c-0.1,0.1-0.1,0.3-0.2,0.4c-0.1,0.1-0.1,0.2-0.2,0.3c-0.1,0.1-0.2,0.2-0.2,0.2l-0.1-0.2
		c0.1-0.1,0.2-0.2,0.3-0.3c0.1-0.1,0.2-0.3,0.3-0.4c0.1-0.2,0.1-0.3,0.2-0.5c0-0.2,0.1-0.4,0.1-0.6v-0.3H9.5v-0.3h1.7v0.3h-0.7v0.3
		c0,0.1,0,0.3,0,0.4c0,0.1,0.1,0.2,0.1,0.4c0,0.1,0.1,0.2,0.1,0.3s0.1,0.2,0.2,0.3c0.1,0.1,0.1,0.2,0.2,0.2c0.1,0.1,0.1,0.1,0.2,0.2
		L11.1,72z M10,74v-1.6h0.2v1.3h1.9V74L10,74L10,74z M11.9,72.7v-1.9h-0.8v-0.3h0.8v-1.3h0.2v3.5L11.9,72.7L11.9,72.7z"/>
	<path d="M14.6,73c-0.1-0.1-0.1-0.1-0.2-0.2c-0.1-0.1-0.1-0.2-0.2-0.2c-0.1-0.1-0.1-0.2-0.2-0.3c0-0.1-0.1-0.2-0.1-0.3
		c0-0.1-0.1-0.2-0.1-0.3c0-0.1-0.1-0.2-0.1-0.3c0,0.2-0.1,0.3-0.1,0.5c-0.1,0.2-0.1,0.3-0.2,0.5c-0.1,0.2-0.1,0.3-0.2,0.4
		c-0.1,0.1-0.2,0.2-0.2,0.3l-0.2-0.2c0.1-0.1,0.1-0.2,0.2-0.3c0.1-0.1,0.1-0.2,0.2-0.3c0.1-0.1,0.1-0.2,0.2-0.4
		c0.1-0.1,0.1-0.3,0.1-0.4c0-0.1,0.1-0.3,0.1-0.4c0-0.1,0-0.3,0-0.4V70H13v-0.3h1.7V70h-0.7v0.6c0,0.1,0,0.3,0,0.4s0.1,0.3,0.1,0.4
		c0,0.1,0.1,0.3,0.1,0.4c0.1,0.1,0.1,0.3,0.2,0.4c0.1,0.1,0.1,0.2,0.2,0.3c0.1,0.1,0.1,0.2,0.2,0.2L14.6,73z M15.4,71.6v2.6h-0.2
		v-4.9h0.2v2H16v0.3H15.4z"/>
	<path d="M18.5,72.8c-0.1,0-0.2,0-0.2,0c-0.1,0-0.2,0-0.3,0h-1.7v-0.3h0.5l0-2.2H17l0,2.2h0.7l0.1-2.2H18l-0.1,2.2
		c0.1,0,0.2,0,0.3,0s0.2,0,0.2,0L18.5,72.8z M16.4,70v-0.3h1.9V70H16.4z M18.9,71.6v2.6h-0.2v-4.9h0.2v2.1h0.5v0.3H18.9z"/>
	<path d="M21.9,72c-0.1,0-0.2,0-0.3-0.1c-0.1-0.1-0.2-0.1-0.3-0.3c-0.1-0.1-0.1-0.2-0.2-0.4c0-0.1-0.1-0.3-0.1-0.5
		c0-0.2,0-0.3,0.1-0.5s0.1-0.3,0.2-0.4s0.2-0.2,0.3-0.2c0.1-0.1,0.2-0.1,0.3-0.1c0.1,0,0.2,0,0.3,0.1c0.1,0.1,0.2,0.1,0.3,0.2
		c0.1,0.1,0.1,0.2,0.2,0.4c0,0.1,0.1,0.3,0.1,0.5c0,0.2,0,0.3-0.1,0.5c0,0.1-0.1,0.3-0.2,0.4c-0.1,0.1-0.2,0.2-0.3,0.3
		C22.1,71.9,22,72,21.9,72z M21.9,69.8c-0.1,0-0.2,0-0.3,0.1c-0.1,0-0.1,0.1-0.2,0.2c-0.1,0.1-0.1,0.2-0.1,0.3c0,0.1,0,0.2,0,0.4
		c0,0.1,0,0.3,0,0.4c0,0.1,0.1,0.2,0.1,0.3s0.1,0.2,0.2,0.2s0.2,0.1,0.3,0.1s0.2,0,0.3-0.1c0.1,0,0.1-0.1,0.2-0.2
		c0.1-0.1,0.1-0.2,0.1-0.3s0-0.3,0-0.4c0-0.1,0-0.3,0-0.4c0-0.1-0.1-0.2-0.1-0.3c-0.1-0.1-0.1-0.2-0.2-0.2
		C22.1,69.8,22,69.8,21.9,69.8z M21.5,74v-1.6h0.2v1.3h1.9V74H21.5L21.5,74z M23.3,69.3h0.2v3.6h-0.2V69.3z"/>
	<path d="M25.8,73c-0.1-0.1-0.1-0.2-0.2-0.3s-0.1-0.2-0.2-0.3c-0.1-0.1-0.1-0.2-0.2-0.4c0-0.1-0.1-0.3-0.1-0.4
		c0,0.1-0.1,0.3-0.1,0.4c0,0.1-0.1,0.3-0.2,0.4c-0.1,0.1-0.1,0.3-0.2,0.4c-0.1,0.1-0.1,0.2-0.2,0.3l-0.2-0.2
		c0.1-0.1,0.2-0.2,0.3-0.4c0.1-0.2,0.2-0.3,0.2-0.5c0.1-0.2,0.1-0.4,0.2-0.6c0-0.2,0.1-0.4,0.1-0.6v-0.5h-0.6V70h0.6v-0.7h0.2V70
		h0.6v0.3h-0.6v0.5c0,0.1,0,0.2,0,0.4s0,0.2,0.1,0.4c0,0.1,0.1,0.2,0.1,0.4c0,0.1,0.1,0.2,0.1,0.3s0.1,0.2,0.2,0.3
		c0.1,0.1,0.1,0.2,0.2,0.2L25.8,73z M26.3,74.1v-2.6h-0.6v-0.3h0.6v-1.8h0.2v4.7L26.3,74.1L26.3,74.1z M26.9,74.2v-4.9h0.2v4.9H26.9
		z"/>
	<path d="M29.4,72v1.1h1.4v0.3h-3v-0.3h1.4V72h-0.9v-2.3h0.2v0.9h1.7v-0.9h0.2V72H29.4z M30.2,70.8h-1.7v1h1.7V70.8z"/>
	<path d="M31.3,73.4v-0.3h1.4v-0.8c-0.2,0-0.3,0-0.4-0.1c-0.1-0.1-0.2-0.1-0.3-0.2c-0.1-0.1-0.1-0.2-0.2-0.3s-0.1-0.2-0.1-0.3
		c0-0.1,0-0.2,0.1-0.3c0-0.1,0.1-0.2,0.2-0.3c0.1-0.1,0.2-0.2,0.3-0.2s0.3-0.1,0.5-0.1c0.2,0,0.4,0,0.5,0.1s0.2,0.1,0.3,0.2
		c0.1,0.1,0.1,0.2,0.2,0.3c0,0.1,0.1,0.2,0.1,0.3c0,0.1,0,0.2-0.1,0.3c0,0.1-0.1,0.2-0.2,0.3c-0.1,0.1-0.2,0.2-0.3,0.2
		c-0.1,0.1-0.3,0.1-0.4,0.1v0.8h1.4v0.3L31.3,73.4L31.3,73.4z M31.6,70.2v-0.2h1.2v-0.6h0.2v0.6h1.2v0.2H31.6z M32.8,70.8
		c-0.2,0-0.3,0-0.4,0.1c-0.1,0-0.2,0.1-0.3,0.2c-0.1,0.1-0.1,0.1-0.1,0.2c0,0.1,0,0.2,0,0.2s0,0.1,0,0.2c0,0.1,0.1,0.2,0.1,0.2
		c0.1,0.1,0.2,0.1,0.3,0.2c0.1,0,0.3,0.1,0.4,0.1s0.3,0,0.4-0.1s0.2-0.1,0.3-0.2c0.1-0.1,0.1-0.1,0.1-0.2c0-0.1,0-0.2,0-0.2
		c0,0,0-0.1,0-0.1c0-0.1,0-0.1-0.1-0.2s-0.1-0.1-0.1-0.1c0,0-0.1-0.1-0.2-0.1s-0.1-0.1-0.2-0.1S32.9,70.8,32.8,70.8z"/>
	<path d="M37.5,69.7c0,0.4-0.1,0.7-0.1,1c-0.1,0.3-0.2,0.6-0.3,0.9c-0.1,0.3-0.3,0.5-0.5,0.7c-0.2,0.2-0.4,0.4-0.6,0.6l-0.2-0.2
		c0.2-0.1,0.4-0.3,0.5-0.5s0.3-0.4,0.4-0.6c0.1-0.2,0.2-0.5,0.3-0.8s0.1-0.6,0.2-0.9H36v-0.3H37.5z M38.3,74.2v-4.9h0.2v4.9H38.3z"
		/>
	<path d="M40.9,72v1.2h-0.2V72h-1.4v-0.3h3V72H40.9z M42,71.2c-0.1,0-0.2-0.1-0.4-0.1c-0.1-0.1-0.2-0.1-0.4-0.2s-0.2-0.2-0.3-0.3
		c-0.1-0.1-0.2-0.3-0.2-0.4c-0.1,0.1-0.1,0.3-0.2,0.4c-0.1,0.1-0.2,0.2-0.3,0.3c-0.1,0.1-0.2,0.2-0.4,0.2c-0.1,0.1-0.2,0.1-0.4,0.1
		L39.4,71c0.1,0,0.2,0,0.3-0.1c0.1,0,0.2-0.1,0.3-0.1s0.2-0.1,0.2-0.2c0.1-0.1,0.2-0.1,0.2-0.2c0.1-0.1,0.1-0.2,0.2-0.3
		c0-0.1,0.1-0.2,0.1-0.3h-1.1v-0.3H42v0.3h-1.1c0,0.1,0.1,0.2,0.1,0.3c0,0.1,0.1,0.2,0.2,0.3c0.1,0.1,0.1,0.2,0.2,0.2
		c0.1,0.1,0.2,0.1,0.3,0.2c0.1,0,0.2,0.1,0.3,0.1c0.1,0,0.2,0,0.3,0L42,71.2z M39.8,74v-1.4H40v1.2h1.9V74H39.8z"/>
	<path d="M43.6,73c-0.1,0-0.2,0-0.3-0.1c-0.1-0.1-0.2-0.2-0.2-0.3S43,72.3,42.9,72c0-0.2-0.1-0.5-0.1-0.8c0-0.3,0-0.5,0.1-0.8
		c0-0.2,0.1-0.4,0.1-0.5s0.1-0.2,0.2-0.3s0.2-0.1,0.3-0.1c0.1,0,0.2,0,0.3,0.1c0.1,0.1,0.2,0.1,0.2,0.3c0.1,0.1,0.1,0.3,0.1,0.5
		c0,0.2,0.1,0.4,0.1,0.7h0.5v-1.8H45V74h-0.2v-2.6h-0.5c0,0.3,0,0.5-0.1,0.7s-0.1,0.4-0.1,0.5c-0.1,0.1-0.1,0.2-0.2,0.3
		S43.7,73,43.6,73z M43.6,69.9c-0.1,0-0.1,0-0.2,0.1c-0.1,0.1-0.1,0.1-0.2,0.3c0,0.1-0.1,0.3-0.1,0.4c0,0.2,0,0.4,0,0.6s0,0.5,0,0.6
		c0,0.2,0.1,0.3,0.1,0.4c0,0.1,0.1,0.2,0.2,0.3c0.1,0.1,0.1,0.1,0.2,0.1s0.1,0,0.2-0.1c0.1-0.1,0.1-0.1,0.2-0.3
		c0-0.1,0.1-0.3,0.1-0.4s0-0.4,0-0.6s0-0.5,0-0.6c0-0.2-0.1-0.3-0.1-0.4c0-0.1-0.1-0.2-0.2-0.3C43.7,69.9,43.7,69.9,43.6,69.9z
		 M45.4,74.2v-4.9h0.2v4.9H45.4z"/>
	<path d="M49,71.8c-0.1-0.1-0.2-0.1-0.2-0.2s-0.2-0.2-0.2-0.3c-0.1-0.1-0.1-0.2-0.2-0.3c-0.1-0.1-0.1-0.2-0.1-0.3
		c0,0.1-0.1,0.3-0.1,0.4c-0.1,0.1-0.1,0.3-0.2,0.4c-0.1,0.1-0.1,0.2-0.2,0.3c-0.1,0.1-0.2,0.2-0.2,0.2l-0.2-0.2
		c0.1-0.1,0.2-0.2,0.3-0.3c0.1-0.1,0.2-0.3,0.3-0.4c0.1-0.2,0.1-0.3,0.2-0.5c0-0.2,0.1-0.4,0.1-0.6v-0.2h-0.7v-0.3h1.7v0.3h-0.7V70
		c0,0.2,0,0.4,0.1,0.5c0,0.2,0.1,0.3,0.2,0.5s0.2,0.3,0.3,0.4c0.1,0.1,0.2,0.2,0.3,0.3L49,71.8z M49.7,74.2v-1.5h-1.9v-0.3h2.1v1.7
		H49.7z M49.7,72.2v-1.5h-0.8v-0.3h0.8v-1.2h0.2v2.9H49.7z"/>
	<path d="M50.8,70.1v-0.2h0.9v-0.6h0.2v0.6h0.9v0.2H50.8z M51.7,72c-0.1,0-0.2,0-0.3-0.1c-0.1,0-0.2-0.1-0.3-0.2
		c-0.1-0.1-0.1-0.2-0.2-0.3s-0.1-0.2-0.1-0.3c0-0.1,0-0.3,0.1-0.4c0-0.1,0.1-0.2,0.2-0.3c0.1-0.1,0.2-0.1,0.3-0.2
		c0.1,0,0.2-0.1,0.3-0.1s0.2,0,0.3,0.1c0.1,0,0.2,0.1,0.3,0.2s0.1,0.2,0.2,0.3c0,0.1,0.1,0.2,0.1,0.4c0,0.1,0,0.2-0.1,0.3
		c0,0.1-0.1,0.2-0.2,0.3c-0.1,0.1-0.2,0.1-0.3,0.2C52,72,51.8,72,51.7,72z M51.7,70.7c-0.1,0-0.2,0-0.3,0c-0.1,0-0.1,0.1-0.2,0.1
		c-0.1,0-0.1,0.1-0.1,0.2c0,0.1,0,0.2,0,0.2s0,0.2,0,0.2c0,0.1,0.1,0.1,0.1,0.2s0.1,0.1,0.2,0.1c0.1,0,0.2,0,0.3,0
		c0.1,0,0.2,0,0.3,0c0.1,0,0.1-0.1,0.2-0.1c0.1,0,0.1-0.1,0.1-0.2c0-0.1,0-0.1,0-0.2c0-0.1,0-0.2,0-0.2c0-0.1-0.1-0.1-0.1-0.2
		s-0.1-0.1-0.2-0.1C51.9,70.7,51.8,70.7,51.7,70.7z M51.3,74.1v-1.7h0.2v0.6h1.6v-0.6h0.2v1.7H51.3z M53.1,73.2h-1.6v0.6h1.6V73.2z
		 M53.3,70.9v1.2h-0.2v-2.8h0.2v1.4h0.5v0.3H53.3z"/>
	<path d="M54.3,70.1v-0.2h0.9v-0.6h0.2v0.6h0.9v0.2H54.3z M55.2,72c-0.1,0-0.2,0-0.3-0.1s-0.2-0.1-0.3-0.2c-0.1-0.1-0.1-0.2-0.2-0.3
		c0-0.1-0.1-0.2-0.1-0.3c0-0.1,0-0.3,0.1-0.4c0-0.1,0.1-0.2,0.2-0.3s0.2-0.1,0.3-0.2c0.1,0,0.2-0.1,0.3-0.1s0.2,0,0.3,0.1
		c0.1,0,0.2,0.1,0.3,0.2c0.1,0.1,0.1,0.2,0.2,0.3s0.1,0.2,0.1,0.4c0,0.1,0,0.2-0.1,0.3s-0.1,0.2-0.2,0.3c-0.1,0.1-0.2,0.1-0.3,0.2
		C55.4,72,55.3,72,55.2,72z M55.2,70.7c-0.1,0-0.2,0-0.3,0c-0.1,0-0.1,0.1-0.2,0.1c-0.1,0-0.1,0.1-0.1,0.2c0,0.1,0,0.2,0,0.2
		s0,0.2,0,0.2c0,0.1,0.1,0.1,0.1,0.2s0.1,0.1,0.2,0.1c0.1,0,0.2,0,0.3,0c0.1,0,0.2,0,0.3,0c0.1,0,0.1-0.1,0.2-0.1
		c0.1,0,0.1-0.1,0.1-0.2c0-0.1,0-0.1,0-0.2c0-0.1,0-0.2,0-0.2c0-0.1-0.1-0.1-0.1-0.2s-0.1-0.1-0.2-0.1
		C55.4,70.7,55.3,70.7,55.2,70.7z M54.8,74.1v-1.7H55v0.6h1.6v-0.6h0.2v1.7H54.8z M56.6,73.2H55v0.6h1.6V73.2z M56.8,70.9v1.2h-0.2
		v-2.8h0.2v1.4h0.5v0.3H56.8z"/>
	<path d="M59.9,72.6c0,0-0.1,0-0.1,0c0,0-0.1,0-0.1,0s-0.1,0-0.2,0c-0.1,0-0.1,0-0.1,0c0,0-0.1,0-0.2,0c-0.1,0-0.2,0-0.3,0
		c-0.1,0-0.2,0-0.4,0c-0.1,0-0.3,0-0.5,0v-3h0.2v2.8H59c0.2,0,0.4,0,0.5,0c0.1,0,0.3,0,0.3-0.1L59.9,72.6z M60.2,74.2v-4.9h0.2v4.9
		H60.2z"/>
	<path d="M63.2,72.7c-0.1,0-0.2,0-0.3,0c-0.1,0-0.2,0-0.3,0c-0.1,0-0.3,0-0.5,0c-0.2,0-0.5,0-0.8,0v-3.1H63V70h-1.3v2.5
		c0.2,0,0.4,0,0.6,0c0.2,0,0.3,0,0.5,0c0.1,0,0.2,0,0.3,0c0.1,0,0.1,0,0.2,0L63.2,72.7z M63.7,71.5v2.7h-0.2v-4.9h0.2v2h0.6v0.3
		L63.7,71.5L63.7,71.5z"/>
	<path d="M64.9,73.8c0,0-0.1,0-0.1-0.1c0-0.1,0-0.1,0-0.2c0-0.1,0-0.1,0-0.2s0.1-0.1,0.1-0.1c0,0,0.1,0,0.1,0.1c0,0,0,0.1,0,0.2
		c0,0.1,0,0.1,0,0.2S64.9,73.8,64.9,73.8z"/>
	<path d="M6.4,80.7c-0.2,0-0.4-0.1-0.5-0.2c-0.1-0.1-0.2-0.3-0.2-0.5s0.1-0.4,0.2-0.5c0.1-0.1,0.3-0.2,0.5-0.2
		c0.2,0,0.4,0.1,0.5,0.2C7,79.6,7.1,79.8,7.1,80S7,80.3,6.9,80.5C6.7,80.6,6.6,80.7,6.4,80.7z"/>
	<path d="M9.3,80.4l0.4,0c0,0.2,0.1,0.4,0.1,0.5c0.1,0.1,0.2,0.2,0.3,0.3c0.1,0.1,0.3,0.1,0.5,0.1c0.2,0,0.4-0.1,0.6-0.2
		c0.1-0.1,0.2-0.3,0.2-0.5c0-0.1,0-0.2-0.1-0.3s-0.1-0.1-0.2-0.2c-0.1-0.1-0.3-0.1-0.6-0.2c-0.3-0.1-0.5-0.2-0.6-0.3
		c-0.1-0.1-0.2-0.2-0.3-0.3c-0.1-0.1-0.1-0.3-0.1-0.5c0-0.3,0.1-0.5,0.3-0.7c0.2-0.2,0.5-0.3,0.8-0.3c0.2,0,0.4,0,0.6,0.1
		c0.2,0.1,0.3,0.2,0.4,0.4s0.1,0.4,0.2,0.6l-0.4,0c0-0.2-0.1-0.4-0.2-0.5c-0.1-0.1-0.3-0.2-0.5-0.2c-0.2,0-0.4,0.1-0.5,0.2
		c-0.1,0.1-0.2,0.2-0.2,0.4c0,0.2,0,0.3,0.1,0.4s0.3,0.2,0.6,0.3c0.3,0.1,0.5,0.2,0.6,0.2c0.2,0.1,0.3,0.2,0.4,0.4
		c0.1,0.2,0.1,0.3,0.1,0.6c0,0.2,0,0.4-0.1,0.6c-0.1,0.2-0.2,0.3-0.4,0.4s-0.4,0.1-0.6,0.1c-0.4,0-0.7-0.1-0.9-0.3
		C9.5,81.1,9.4,80.8,9.3,80.4z"/>
	<path d="M12,81.6l1.2-3.7h0.4l1.3,3.7h-0.5L14,80.5h-1.3l-0.3,1.1H12z M12.9,80.1h1l-0.3-1c-0.1-0.3-0.2-0.6-0.2-0.8
		c0,0.2-0.1,0.5-0.2,0.7L12.9,80.1z"/>
	<path d="M15.2,81.6v-3.7h1.4c0.3,0,0.5,0,0.6,0.1c0.1,0.1,0.2,0.2,0.3,0.3s0.1,0.3,0.1,0.6c0,0.3-0.1,0.5-0.2,0.7
		c-0.1,0.2-0.4,0.3-0.6,0.3c0.1,0.1,0.2,0.1,0.3,0.2c0.1,0.1,0.2,0.3,0.3,0.5l0.5,1h-0.5L17,80.9c-0.2-0.3-0.3-0.5-0.4-0.6
		c-0.1-0.1-0.2-0.2-0.2-0.2C16.3,80,16.2,80,16,80h-0.5v1.7H15.2z M15.6,79.6h0.9c0.2,0,0.3,0,0.4-0.1c0.1,0,0.2-0.1,0.2-0.2
		c0.1-0.1,0.1-0.2,0.1-0.3c0-0.2-0.1-0.3-0.2-0.4c-0.1-0.1-0.3-0.2-0.5-0.2h-1V79.6z"/>
	<path d="M21,80.1v2h-0.3v-2h-1.4v-0.3h3v0.3H21z M22.2,79.2c-0.3-0.1-0.5-0.2-0.8-0.4c-0.2-0.2-0.4-0.4-0.5-0.6
		c-0.1,0.2-0.2,0.4-0.5,0.6c-0.2,0.2-0.5,0.4-0.8,0.4l-0.2-0.3c0.3-0.1,0.6-0.2,0.9-0.5c0.3-0.3,0.4-0.6,0.4-0.9v-0.2H21v0.2
		c0,0.3,0.1,0.6,0.4,0.9c0.2,0.3,0.5,0.4,0.9,0.5L22.2,79.2z"/>
	<path d="M24.8,80.8c-0.1-0.1-0.2-0.2-0.3-0.3c-0.1-0.1-0.2-0.2-0.2-0.4s-0.1-0.3-0.2-0.4C24,79.6,24,79.5,24,79.4
		c0,0.1-0.1,0.3-0.1,0.4s-0.1,0.3-0.2,0.4s-0.2,0.3-0.2,0.4s-0.2,0.2-0.3,0.3L23,80.7c0.1,0,0.1-0.1,0.2-0.2s0.1-0.2,0.2-0.3
		c0.1-0.1,0.1-0.2,0.2-0.3c0.1-0.1,0.1-0.2,0.2-0.4c0-0.1,0.1-0.3,0.1-0.4c0-0.1,0-0.3,0-0.5v-0.5h-0.8v-0.3h0.8v-0.7h0.2v0.7h0.8
		v0.3h-0.8v0.5c0,0.2,0,0.3,0,0.5c0,0.1,0.1,0.3,0.1,0.4c0,0.1,0.1,0.3,0.2,0.4c0.1,0.1,0.1,0.2,0.2,0.3c0.1,0.1,0.1,0.2,0.2,0.2
		s0.1,0.1,0.2,0.2L24.8,80.8z M25.6,82.1h-0.2v-4.9h0.2V82.1z"/>
	<path d="M27.6,79.4v-2h1.5v2H27.6z M30.2,82c-0.1,0-0.1,0-0.2-0.1s-0.2-0.1-0.2-0.1c-0.1-0.1-0.1-0.1-0.2-0.2
		c-0.1-0.1-0.1-0.1-0.2-0.2c-0.1-0.1-0.1-0.2-0.2-0.2S29,81,29,80.9c0,0.1-0.1,0.3-0.2,0.4c-0.1,0.1-0.2,0.2-0.3,0.3
		c-0.1,0.1-0.2,0.2-0.3,0.2c-0.1,0.1-0.2,0.1-0.3,0.2l-0.1-0.3c0.1,0,0.2,0,0.2-0.1c0.1,0,0.2-0.1,0.2-0.1c0.1-0.1,0.2-0.1,0.2-0.2
		c0.1-0.1,0.1-0.1,0.2-0.2c0.1-0.1,0.1-0.2,0.2-0.3s0.1-0.2,0.1-0.3h-1v-0.3h1v-0.5h0.2v0.5h1v0.3h-1c0,0.1,0,0.2,0.1,0.3
		c0,0.1,0.1,0.2,0.2,0.3c0.1,0.1,0.1,0.2,0.2,0.2c0.1,0.1,0.2,0.1,0.2,0.2s0.2,0.1,0.2,0.1c0.1,0,0.2,0.1,0.2,0.1L30.2,82z
		 M28.9,77.6h-1.1v1.5h1.1V77.6z M29.8,79.9v-2.7H30v2.7H29.8z"/>
	<path d="M31.8,79.8v-0.3h3v0.3H31.8z M33.3,82.1c-0.2,0-0.4,0-0.5-0.1c-0.1,0-0.2-0.1-0.3-0.2c-0.1-0.1-0.1-0.2-0.2-0.3
		c0-0.1-0.1-0.2-0.1-0.3s0-0.2,0.1-0.3c0-0.1,0.1-0.2,0.2-0.3c0.1-0.1,0.2-0.1,0.3-0.2c0.1,0,0.3-0.1,0.5-0.1s0.4,0,0.5,0.1
		c0.1,0,0.2,0.1,0.3,0.2c0.1,0.1,0.1,0.2,0.2,0.3c0,0.1,0.1,0.2,0.1,0.3s0,0.2-0.1,0.3c0,0.1-0.1,0.2-0.2,0.3
		c-0.1,0.1-0.2,0.1-0.3,0.2C33.7,82,33.5,82.1,33.3,82.1z M32.3,78.9v-1.6h2v0.3h-1.8v1.1h1.9v0.3L32.3,78.9L32.3,78.9z M33.3,80.5
		c-0.2,0-0.3,0-0.4,0.1c-0.1,0-0.2,0.1-0.3,0.2c-0.1,0.1-0.1,0.1-0.1,0.2s0,0.1,0,0.2c0,0,0,0.1,0,0.1s0,0.1,0.1,0.1
		c0,0,0.1,0.1,0.1,0.1c0,0,0.1,0.1,0.2,0.1c0.1,0,0.1,0.1,0.2,0.1c0.1,0,0.2,0,0.3,0c0.2,0,0.3,0,0.4-0.1s0.2-0.1,0.3-0.2
		c0.1-0.1,0.1-0.1,0.1-0.2c0-0.1,0-0.1,0-0.2c0,0,0-0.1,0-0.1c0,0,0-0.1-0.1-0.1c0,0-0.1-0.1-0.1-0.1c0,0-0.1-0.1-0.2-0.1
		s-0.1-0.1-0.2-0.1C33.6,80.5,33.5,80.5,33.3,80.5z"/>
	<path d="M37.9,77.4c0,0.2,0,0.3,0,0.5c0,0.2,0,0.4,0,0.5c0,0.2,0,0.3,0,0.5c0,0.2,0,0.3,0,0.4h0.5v0.3h-3v-0.3h2.3
		c0-0.1,0-0.1,0-0.2c0-0.1,0-0.2,0-0.3c0-0.1,0-0.2,0-0.3c0-0.1,0-0.2,0-0.3c0-0.1,0-0.2,0-0.3c0-0.1,0-0.2,0-0.3h-1.9v-0.3
		L37.9,77.4L37.9,77.4z M35.8,82v-1.9H36v0.7h1.6v-0.7h0.2V82H35.8z M37.6,81H36v0.7h1.6V81z"/>
	<path d="M40.5,77.6c0,0.4-0.1,0.7-0.1,1c-0.1,0.3-0.2,0.6-0.3,0.9c-0.1,0.3-0.3,0.5-0.5,0.7s-0.4,0.4-0.6,0.6l-0.2-0.2
		c0.2-0.1,0.4-0.3,0.5-0.5c0.2-0.2,0.3-0.4,0.4-0.6c0.1-0.2,0.2-0.5,0.3-0.8s0.1-0.6,0.2-0.9H39v-0.3H40.5z M41.3,82.1v-4.9h0.2v4.9
		H41.3z"/>
	<path d="M43.9,79.9v1.2h-0.2v-1.2h-1.4v-0.3h3v0.3H43.9z M45.1,79.1c-0.1,0-0.2-0.1-0.4-0.1c-0.1-0.1-0.2-0.1-0.4-0.2
		s-0.2-0.2-0.3-0.3c-0.1-0.1-0.2-0.3-0.2-0.4c-0.1,0.1-0.1,0.3-0.2,0.4c-0.1,0.1-0.2,0.2-0.3,0.3c-0.1,0.1-0.2,0.2-0.4,0.2
		c-0.1,0.1-0.2,0.1-0.4,0.1l-0.1-0.2c0.1,0,0.2,0,0.3-0.1c0.1,0,0.2-0.1,0.3-0.1c0.1,0,0.2-0.1,0.2-0.2c0.1-0.1,0.2-0.1,0.2-0.2
		c0.1-0.1,0.1-0.2,0.2-0.3c0-0.1,0.1-0.2,0.1-0.3h-1.1v-0.3H45v0.3h-1.1c0,0.1,0.1,0.2,0.1,0.3c0,0.1,0.1,0.2,0.2,0.3
		c0.1,0.1,0.1,0.2,0.2,0.2c0.1,0.1,0.2,0.1,0.3,0.2c0.1,0,0.2,0.1,0.3,0.1c0.1,0,0.2,0,0.3,0L45.1,79.1z M42.8,81.9v-1.4H43v1.2h1.9
		v0.3H42.8z"/>
	<path d="M46.6,80.8c-0.1,0-0.2,0-0.3-0.1s-0.2-0.2-0.2-0.3S46,80.1,46,79.9c0-0.2-0.1-0.5-0.1-0.8c0-0.3,0-0.5,0.1-0.8
		c0-0.2,0.1-0.4,0.1-0.5s0.1-0.2,0.2-0.3s0.2-0.1,0.3-0.1c0.1,0,0.2,0,0.3,0.1c0.1,0.1,0.2,0.1,0.2,0.3c0.1,0.1,0.1,0.3,0.1,0.5
		c0,0.2,0.1,0.4,0.1,0.7h0.5v-1.8H48v4.7h-0.2v-2.6h-0.5c0,0.3,0,0.5-0.1,0.7s-0.1,0.4-0.1,0.5c-0.1,0.1-0.1,0.2-0.2,0.3
		S46.7,80.8,46.6,80.8z M46.6,77.7c-0.1,0-0.1,0-0.2,0.1c-0.1,0.1-0.1,0.1-0.2,0.3c0,0.1-0.1,0.3-0.1,0.4c0,0.2,0,0.4,0,0.6
		s0,0.5,0,0.6c0,0.2,0.1,0.3,0.1,0.4c0,0.1,0.1,0.2,0.2,0.3c0.1,0.1,0.1,0.1,0.2,0.1c0.1,0,0.1,0,0.2-0.1c0.1-0.1,0.1-0.1,0.2-0.3
		c0-0.1,0.1-0.3,0.1-0.4c0-0.2,0-0.4,0-0.6s0-0.5,0-0.6S47,78.2,47,78.1c0-0.1-0.1-0.2-0.2-0.3C46.7,77.8,46.7,77.7,46.6,77.7z
		 M48.4,82.1v-4.9h0.2v4.9H48.4z"/>
	<path d="M52.4,79.9c-0.1,0-0.2,0-0.4,0c-0.2,0-0.4,0-0.6,0c-0.1,0-0.2,0-0.3,0c-0.1,0-0.2,0-0.3,0c-0.1,0-0.2,0-0.3,0s-0.2,0-0.2,0
		l0-0.3c0.1,0,0.2,0,0.2,0s0.1,0,0.2,0c0.1,0,0.1,0,0.2,0c0.1,0,0.1,0,0.2,0v-1.1h0.2v1.1c0.1,0,0.2,0,0.3,0c0.1,0,0.2,0,0.3,0
		c0.1,0,0.2,0,0.3,0c0.1,0,0.2,0,0.3,0L52.4,79.9z M52.1,77.5c0,0.3,0,0.6,0,0.9c0,0.3,0,0.5,0,0.8l-0.2,0c0-0.2,0-0.5,0-0.7
		c0-0.2,0-0.5,0-0.7h-1.4v-0.3L52.1,77.5L52.1,77.5z M50.8,81.9v-1.5H51v1.2h1.9v0.3H50.8z M52.9,79.2v1.6h-0.2v-3.6h0.2V79h0.5v0.3
		H52.9z"/>
	<path d="M53.8,78.1v-0.2h0.9v-0.7h0.2v0.7h0.9v0.2H53.8z M54.8,80.2c-0.1,0-0.2,0-0.3-0.1c-0.1,0-0.2-0.1-0.3-0.2
		c-0.1-0.1-0.1-0.2-0.2-0.3c0-0.1-0.1-0.2-0.1-0.4c0-0.1,0-0.3,0.1-0.4c0-0.1,0.1-0.2,0.2-0.3c0.1-0.1,0.2-0.1,0.3-0.2
		c0.1,0,0.2-0.1,0.3-0.1s0.2,0,0.3,0.1c0.1,0,0.2,0.1,0.3,0.2c0.1,0.1,0.1,0.2,0.2,0.3c0,0.1,0.1,0.2,0.1,0.4c0,0.1,0,0.3-0.1,0.4
		c0,0.1-0.1,0.2-0.2,0.3c-0.1,0.1-0.2,0.1-0.3,0.2C55,80.2,54.9,80.2,54.8,80.2z M54.8,78.6c-0.1,0-0.2,0-0.3,0.1s-0.1,0.1-0.2,0.1
		s-0.1,0.1-0.1,0.2s0,0.2,0,0.3c0,0.1,0,0.2,0,0.3c0,0.1,0.1,0.2,0.1,0.2s0.1,0.1,0.2,0.1c0.1,0,0.2,0.1,0.3,0.1
		c0.1,0,0.2,0,0.3-0.1c0.1,0,0.1-0.1,0.2-0.1c0.1-0.1,0.1-0.1,0.1-0.2c0-0.1,0-0.2,0-0.3s0-0.2,0-0.3s-0.1-0.2-0.1-0.2
		c-0.1-0.1-0.1-0.1-0.2-0.1S54.9,78.6,54.8,78.6z M54.3,82v-1.4h0.2v1.1h1.9V82H54.3L54.3,82z M56.3,79.2v1.6h-0.2v-3.6h0.2v1.7h0.5
		v0.3H56.3z"/>
	<path d="M59.9,79.7c-0.1-0.1-0.2-0.1-0.2-0.2c-0.1-0.1-0.2-0.2-0.2-0.3c-0.1-0.1-0.1-0.2-0.2-0.3s-0.1-0.2-0.1-0.4
		c0,0.1-0.1,0.3-0.1,0.4c-0.1,0.1-0.1,0.3-0.2,0.4c-0.1,0.1-0.1,0.2-0.2,0.3c-0.1,0.1-0.2,0.2-0.2,0.3l-0.2-0.2
		c0.1-0.1,0.2-0.2,0.3-0.3c0.1-0.1,0.2-0.3,0.3-0.4c0.1-0.2,0.1-0.3,0.2-0.5c0-0.2,0.1-0.4,0.1-0.5v-0.5h0.2v0.5
		c0,0.2,0,0.4,0.1,0.5c0,0.2,0.1,0.3,0.2,0.5c0.1,0.1,0.2,0.3,0.3,0.4c0.1,0.1,0.2,0.2,0.3,0.3L59.9,79.7z M59.8,82
		c-0.2,0-0.3,0-0.5-0.1c-0.1,0-0.2-0.1-0.3-0.2s-0.2-0.2-0.2-0.3c0-0.1-0.1-0.2-0.1-0.4c0-0.1,0-0.3,0.1-0.4s0.1-0.2,0.2-0.3
		c0.1-0.1,0.2-0.1,0.3-0.2c0.1,0,0.3-0.1,0.5-0.1c0.2,0,0.3,0,0.5,0.1c0.1,0,0.2,0.1,0.3,0.2c0.1,0.1,0.2,0.2,0.2,0.3
		c0,0.1,0.1,0.2,0.1,0.4c0,0.1,0,0.3-0.1,0.4s-0.1,0.2-0.2,0.3c-0.1,0.1-0.2,0.1-0.3,0.2C60.1,82,60,82,59.8,82z M59.8,80.4
		c-0.2,0-0.3,0-0.4,0.1c-0.1,0-0.2,0.1-0.3,0.1C59,80.7,59,80.8,59,80.8s-0.1,0.2-0.1,0.3c0,0.1,0,0.2,0.1,0.3s0.1,0.2,0.2,0.2
		s0.2,0.1,0.3,0.1c0.1,0,0.2,0.1,0.4,0.1c0.2,0,0.3,0,0.4-0.1c0.1,0,0.2-0.1,0.3-0.1c0.1-0.1,0.1-0.1,0.2-0.2s0.1-0.2,0.1-0.3
		c0-0.1,0-0.2-0.1-0.3s-0.1-0.2-0.2-0.2c-0.1-0.1-0.2-0.1-0.3-0.1C60.1,80.4,59.9,80.4,59.8,80.4z M60.8,78.8v1.3h-0.2v-2.9h0.2v1.4
		h0.5v0.3L60.8,78.8L60.8,78.8z"/>
	<path d="M63.2,80.9c-0.1-0.1-0.1-0.2-0.2-0.3c-0.1-0.1-0.1-0.3-0.2-0.4c-0.1-0.1-0.1-0.3-0.1-0.4c0-0.1-0.1-0.3-0.1-0.4
		c0,0.1-0.1,0.3-0.1,0.4c0,0.2-0.1,0.3-0.2,0.4c-0.1,0.1-0.1,0.3-0.2,0.4C62,80.8,62,80.9,61.9,81l-0.2-0.2c0.1-0.1,0.1-0.2,0.2-0.3
		c0.1-0.1,0.1-0.2,0.2-0.3c0.1-0.1,0.1-0.2,0.2-0.4c0-0.1,0.1-0.3,0.1-0.4c0-0.1,0.1-0.3,0.1-0.4c0-0.2,0-0.3,0-0.5v-0.9h0.2v1
		c0,0.2,0,0.4,0.1,0.6c0,0.2,0.1,0.4,0.1,0.6s0.1,0.4,0.2,0.5c0.1,0.2,0.2,0.3,0.3,0.4L63.2,80.9z M63.7,81.9v-2.8h-0.6v-0.2h0.6
		v-1.6h0.2v4.7H63.7z M64.3,82.1v-4.9h0.2v4.9H64.3z"/>
	<path d="M65.2,78.1v-0.2h0.9v-0.7h0.2v0.7h0.9v0.2H65.2z M66.2,80.2c-0.1,0-0.2,0-0.3-0.1c-0.1,0-0.2-0.1-0.3-0.2
		c-0.1-0.1-0.1-0.2-0.2-0.3c0-0.1-0.1-0.2-0.1-0.4c0-0.1,0-0.3,0.1-0.4s0.1-0.2,0.2-0.3c0.1-0.1,0.2-0.1,0.3-0.2
		c0.1,0,0.2-0.1,0.3-0.1c0.1,0,0.2,0,0.3,0.1c0.1,0,0.2,0.1,0.3,0.2c0.1,0.1,0.1,0.2,0.2,0.3s0.1,0.2,0.1,0.4c0,0.1,0,0.3-0.1,0.4
		c0,0.1-0.1,0.2-0.2,0.3c-0.1,0.1-0.2,0.1-0.3,0.2C66.4,80.2,66.3,80.2,66.2,80.2z M66.2,78.6c-0.1,0-0.2,0-0.3,0.1
		s-0.1,0.1-0.2,0.1s-0.1,0.1-0.1,0.2c0,0.1,0,0.2,0,0.3c0,0.1,0,0.2,0,0.3c0,0.1,0.1,0.2,0.1,0.2s0.1,0.1,0.2,0.1
		c0.1,0,0.2,0.1,0.3,0.1s0.2,0,0.3-0.1c0.1,0,0.1-0.1,0.2-0.1s0.1-0.1,0.1-0.2c0-0.1,0-0.2,0-0.3s0-0.2,0-0.3c0-0.1-0.1-0.2-0.1-0.2
		c-0.1-0.1-0.1-0.1-0.2-0.1C66.4,78.7,66.3,78.6,66.2,78.6z M65.7,82v-1.4h0.2v1.1h1.9V82H65.7L65.7,82z M67.8,79.2v1.6h-0.2v-3.6
		h0.2v1.7h0.5v0.3H67.8z"/>
	<path d="M71.4,79.7c-0.1-0.1-0.2-0.1-0.2-0.2c-0.1-0.1-0.2-0.2-0.2-0.3s-0.1-0.2-0.2-0.3c-0.1-0.1-0.1-0.2-0.1-0.3
		c0,0.1-0.1,0.3-0.1,0.4c-0.1,0.1-0.1,0.3-0.2,0.4c-0.1,0.1-0.1,0.2-0.2,0.3c-0.1,0.1-0.2,0.2-0.2,0.2l-0.2-0.2
		c0.1-0.1,0.2-0.2,0.3-0.3s0.2-0.3,0.3-0.4c0.1-0.2,0.1-0.3,0.2-0.5c0-0.2,0.1-0.4,0.1-0.6v-0.2h-0.7v-0.3h1.7v0.3h-0.7v0.2
		c0,0.2,0,0.4,0.1,0.5c0,0.2,0.1,0.3,0.2,0.5c0.1,0.1,0.2,0.3,0.3,0.4c0.1,0.1,0.2,0.2,0.3,0.3L71.4,79.7z M71.3,82
		c-0.2,0-0.3,0-0.5-0.1c-0.1,0-0.2-0.1-0.3-0.2c-0.1-0.1-0.2-0.2-0.2-0.3s-0.1-0.2-0.1-0.4c0-0.1,0-0.3,0.1-0.4
		c0-0.1,0.1-0.2,0.2-0.3c0.1-0.1,0.2-0.1,0.3-0.2c0.1,0,0.3-0.1,0.5-0.1c0.2,0,0.3,0,0.5,0.1c0.1,0,0.2,0.1,0.3,0.2
		c0.1,0.1,0.2,0.2,0.2,0.3s0.1,0.2,0.1,0.4c0,0.1,0,0.3-0.1,0.4c0,0.1-0.1,0.2-0.2,0.3c-0.1,0.1-0.2,0.1-0.3,0.2
		C71.7,82,71.5,82,71.3,82z M71.3,80.4c-0.2,0-0.3,0-0.4,0.1c-0.1,0-0.2,0.1-0.3,0.1c-0.1,0.1-0.1,0.1-0.2,0.2
		c0,0.1-0.1,0.2-0.1,0.3c0,0.1,0,0.2,0.1,0.3c0,0.1,0.1,0.2,0.2,0.2s0.2,0.1,0.3,0.1c0.1,0,0.2,0.1,0.4,0.1c0.2,0,0.3,0,0.4-0.1
		c0.1,0,0.2-0.1,0.3-0.1s0.1-0.1,0.2-0.2c0-0.1,0.1-0.2,0.1-0.3c0-0.1,0-0.2-0.1-0.3c0-0.1-0.1-0.2-0.2-0.2
		c-0.1-0.1-0.2-0.1-0.3-0.1C71.6,80.4,71.5,80.4,71.3,80.4z M72.2,80v-1.5h-0.8v-0.3h0.8v-1.2h0.2V80L72.2,80L72.2,80z"/>
	<path d="M74.8,79.9v1.1h1.4v0.3h-3v-0.3h1.4v-1.1h-0.9v-2.3h0.2v0.9h1.7v-0.9h0.2v2.3H74.8z M75.5,78.7h-1.7v1h1.7V78.7z"/>
	<path d="M76.7,80v-0.3h3V80H76.7z M77.2,81.9v-1.4h0.2v1.1h1.9v0.3H77.2z M77.2,79v-1.6h0.2v1.4h1.9V79H77.2z"/>
	<path d="M9.8,87.7L9.2,85h0.4l0.4,1.6l0.1,0.6l0.1-0.6l0.4-1.6h0.4l0.3,1.6l0.1,0.5l0.1-0.5l0.4-1.6h0.4l-0.7,2.7h-0.4L10.8,86
		l-0.1-0.5l-0.4,2.1L9.8,87.7L9.8,87.7z"/>
	<path d="M12.9,87.7L12.2,85h0.4l0.4,1.6l0.1,0.6l0.1-0.6l0.4-1.6H14l0.3,1.6l0.1,0.5l0.1-0.5l0.4-1.6h0.4l-0.7,2.7h-0.4L13.8,86
		l-0.1-0.5l-0.4,2.1L12.9,87.7L12.9,87.7z"/>
	<path d="M16,87.7L15.3,85h0.4l0.4,1.6l0.1,0.6l0.1-0.6l0.4-1.6h0.4l0.3,1.6l0.1,0.5l0.1-0.5L18,85h0.4l-0.7,2.7h-0.4L16.9,86
		l-0.1-0.5l-0.4,2.1L16,87.7L16,87.7z"/>
	<path d="M18.6,87.7v-0.5H19v0.5H18.6z"/>
	<path d="M19.6,87.7V85H20v0.4c0.1-0.2,0.2-0.3,0.2-0.4c0.1-0.1,0.2-0.1,0.2-0.1c0.1,0,0.3,0,0.4,0.1l-0.1,0.4
		c-0.1-0.1-0.2-0.1-0.3-0.1c-0.1,0-0.2,0-0.2,0.1c-0.1,0.1-0.1,0.1-0.1,0.2c0,0.2-0.1,0.4-0.1,0.6v1.4L19.6,87.7L19.6,87.7z"/>
	<path d="M21.1,87.7V85h0.3v0.4c0.1-0.2,0.2-0.3,0.2-0.4c0.1-0.1,0.2-0.1,0.2-0.1c0.1,0,0.3,0,0.4,0.1l-0.1,0.4
		c-0.1-0.1-0.2-0.1-0.3-0.1c-0.1,0-0.2,0-0.2,0.1c-0.1,0.1-0.1,0.1-0.1,0.2c0,0.2-0.1,0.4-0.1,0.6v1.4L21.1,87.7L21.1,87.7z"/>
	<path d="M23.9,87.3c-0.1,0.1-0.3,0.2-0.4,0.3c-0.1,0.1-0.3,0.1-0.4,0.1c-0.2,0-0.4-0.1-0.6-0.2c-0.1-0.1-0.2-0.3-0.2-0.6
		c0-0.2,0-0.3,0.1-0.4c0.1-0.1,0.2-0.2,0.3-0.3c0.1-0.1,0.3-0.1,0.5-0.1c0.3,0,0.5-0.1,0.7-0.2l0-0.1c0-0.2,0-0.3-0.1-0.4
		c-0.1-0.1-0.2-0.2-0.4-0.2c-0.2,0-0.3,0-0.4,0.1s-0.1,0.2-0.2,0.4l-0.4-0.1c0.1-0.3,0.2-0.5,0.3-0.6s0.4-0.2,0.7-0.2
		c0.2,0,0.4,0,0.5,0.1s0.2,0.2,0.3,0.3c0,0.1,0.1,0.3,0.1,0.6v0.6c0,0.4,0,0.7,0,0.8c0,0.1,0,0.2,0.1,0.3H24
		C24,87.6,23.9,87.5,23.9,87.3z M23.9,86.3c-0.1,0.1-0.3,0.1-0.6,0.2c-0.2,0-0.3,0.1-0.3,0.1c-0.1,0-0.1,0.1-0.1,0.1
		c0,0.1-0.1,0.1-0.1,0.2c0,0.1,0,0.2,0.1,0.3c0.1,0.1,0.2,0.1,0.3,0.1c0.1,0,0.3,0,0.4-0.1c0.1-0.1,0.2-0.2,0.2-0.3
		c0.1-0.1,0.1-0.3,0.1-0.5L23.9,86.3L23.9,86.3z"/>
	<path d="M25,87.7v-0.5h0.4v0.5H25z"/>
	<path d="M26,87.9l0.4,0.1c0,0.1,0.1,0.3,0.2,0.3c0.1,0.1,0.2,0.1,0.4,0.1c0.2,0,0.3,0,0.4-0.1s0.2-0.2,0.2-0.4c0-0.1,0-0.3,0-0.6
		c-0.1,0.1-0.2,0.2-0.3,0.3c-0.1,0.1-0.2,0.1-0.3,0.1c-0.3,0-0.5-0.1-0.7-0.3c-0.2-0.3-0.3-0.6-0.3-1c0-0.3,0-0.5,0.1-0.8
		c0.1-0.2,0.2-0.4,0.3-0.5c0.1-0.1,0.3-0.2,0.5-0.2c0.1,0,0.2,0,0.4,0.1s0.2,0.2,0.3,0.3V85h0.3v2.3c0,0.4,0,0.7-0.1,0.9
		c-0.1,0.2-0.2,0.3-0.3,0.4s-0.3,0.2-0.6,0.2c-0.3,0-0.5-0.1-0.7-0.2C26,88.4,26,88.2,26,87.9z M26.3,86.3c0,0.4,0.1,0.6,0.2,0.8
		c0.1,0.2,0.3,0.2,0.4,0.2s0.3-0.1,0.4-0.2c0.1-0.2,0.2-0.4,0.2-0.8c0-0.3-0.1-0.6-0.2-0.8c-0.1-0.2-0.3-0.2-0.4-0.2
		c-0.2,0-0.3,0.1-0.4,0.2C26.3,85.7,26.3,85.9,26.3,86.3z"/>
	<path d="M28.3,86.3c0-0.5,0.1-0.8,0.3-1.1c0.2-0.2,0.4-0.4,0.7-0.4c0.3,0,0.5,0.1,0.7,0.4c0.2,0.2,0.3,0.6,0.3,1
		c0,0.5-0.1,0.8-0.3,1.1s-0.4,0.4-0.7,0.4c-0.3,0-0.5-0.1-0.7-0.4S28.3,86.8,28.3,86.3z M28.7,86.3c0,0.3,0.1,0.6,0.2,0.8
		c0.1,0.2,0.3,0.3,0.5,0.3c0.2,0,0.3-0.1,0.5-0.3c0.1-0.2,0.2-0.4,0.2-0.8s-0.1-0.6-0.2-0.8s-0.3-0.3-0.5-0.3
		c-0.2,0-0.3,0.1-0.5,0.3C28.7,85.7,28.7,86,28.7,86.3z"/>
	<path d="M30.9,87.7v-0.5h0.4v0.5H30.9z"/>
	<path d="M32,87.7v-3.7h0.4v2.1l0.9-1.1h0.5l-0.8,1l0.9,1.7h-0.5l-0.7-1.4l-0.3,0.3v1.1L32,87.7L32,87.7z"/>
	<path d="M34.1,87.7V85h0.3v0.4c0.1-0.2,0.2-0.3,0.2-0.4c0.1-0.1,0.2-0.1,0.2-0.1c0.1,0,0.3,0,0.4,0.1l-0.1,0.4
		c-0.1-0.1-0.2-0.1-0.3-0.1c-0.1,0-0.2,0-0.2,0.1c-0.1,0.1-0.1,0.1-0.1,0.2c0,0.2-0.1,0.4-0.1,0.6v1.4L34.1,87.7L34.1,87.7z"/>
	<path d="M36.5,87.3v-0.3h1.4v-1h0.2v1h1.4v0.3H36.5z M36.8,83.7h1.1v0.3H37v1.6h0.9v0.2h-1.1V83.7z M38,83.7h1.1v0.3h-0.9v1.6h1
		v0.2H38V83.7z"/>
	<path d="M40,86.1v-0.3h3v0.3H40z M40.5,87.9v-1.4h0.2v1.1h1.9v0.3H40.5z M40.5,85v-1.6h0.2v1.4h1.9V85H40.5z"/>
	<path d="M45.9,86.9c-0.1-0.1-0.1-0.2-0.2-0.3c-0.1-0.1-0.1-0.2-0.2-0.4c-0.1-0.1-0.1-0.3-0.1-0.4c0-0.1-0.1-0.3-0.1-0.4
		c0,0.1-0.1,0.3-0.1,0.4c0,0.1-0.1,0.3-0.2,0.4c-0.1,0.1-0.1,0.3-0.2,0.4c-0.1,0.1-0.1,0.2-0.2,0.3l-0.2-0.2
		c0.1-0.1,0.2-0.2,0.3-0.4s0.2-0.3,0.2-0.5c0.1-0.2,0.1-0.4,0.2-0.6c0-0.2,0.1-0.4,0.1-0.7v-0.7h-0.6v-0.3H46v0.3h-0.6v0.7
		c0,0.2,0,0.5,0.1,0.7c0,0.2,0.1,0.4,0.2,0.6c0.1,0.2,0.1,0.4,0.2,0.5c0.1,0.1,0.2,0.3,0.2,0.4L45.9,86.9z M46.4,88v-2.8h-0.6v-0.2
		h0.6v-1.6h0.2V88L46.4,88L46.4,88z M47,88.1v-4.9h0.2v4.9H47z"/>
	<path d="M47.9,87.3v-0.3h1.4v-1.3h0.2v1.3H51v0.3H47.9z M49.5,83.9L49.5,83.9c0,0.2,0,0.4,0.1,0.5c0,0.1,0.1,0.3,0.2,0.4
		c0.1,0.1,0.1,0.2,0.2,0.3c0.1,0.1,0.2,0.2,0.3,0.3c0.1,0.1,0.2,0.1,0.3,0.2c0.1,0.1,0.2,0.1,0.3,0.1l-0.1,0.2
		c-0.1,0-0.2-0.1-0.4-0.2c-0.1-0.1-0.2-0.2-0.4-0.3s-0.2-0.3-0.3-0.4c-0.1-0.2-0.2-0.3-0.2-0.5c0,0.2-0.1,0.3-0.2,0.5
		c-0.1,0.2-0.2,0.3-0.3,0.4c-0.1,0.1-0.2,0.2-0.4,0.3c-0.1,0.1-0.2,0.2-0.4,0.2l-0.1-0.2c0.1,0,0.2-0.1,0.3-0.1
		c0.1-0.1,0.2-0.1,0.3-0.2c0.1-0.1,0.2-0.2,0.3-0.3s0.2-0.2,0.2-0.3c0.1-0.1,0.1-0.2,0.2-0.4c0-0.1,0.1-0.3,0.1-0.4v-0.1h-1.1v-0.3
		h2.4v0.3L49.5,83.9L49.5,83.9z"/>
	<path d="M53.2,86.8c-0.1-0.1-0.2-0.2-0.3-0.3c-0.1-0.1-0.2-0.3-0.2-0.4c-0.1-0.1-0.1-0.3-0.2-0.5c-0.1-0.2-0.1-0.3-0.1-0.5
		c0,0.2-0.1,0.3-0.1,0.5c-0.1,0.2-0.1,0.3-0.2,0.5s-0.2,0.3-0.2,0.4c-0.1,0.1-0.2,0.3-0.3,0.4l-0.2-0.2c0.1-0.1,0.2-0.3,0.3-0.4
		s0.2-0.4,0.3-0.6s0.1-0.4,0.2-0.7c0-0.2,0.1-0.5,0.1-0.7v-0.8h0.2v0.8c0,0.2,0,0.5,0.1,0.7c0,0.2,0.1,0.4,0.2,0.6s0.2,0.4,0.3,0.5
		c0.1,0.2,0.2,0.3,0.3,0.4L53.2,86.8z M54,85.5v2.6h-0.2v-4.9H54v2h0.6v0.3H54z"/>
	<path d="M55.9,86.2v-0.2h1.4v-0.4c-0.3,0-0.6-0.1-0.7-0.2c-0.2-0.1-0.2-0.3-0.2-0.5c0-0.2,0.1-0.4,0.3-0.5c0.2-0.1,0.4-0.2,0.8-0.2
		c0.3,0,0.6,0.1,0.8,0.2c0.2,0.1,0.3,0.3,0.3,0.5c0,0.2-0.1,0.4-0.2,0.5c-0.2,0.1-0.4,0.2-0.7,0.2v0.4h1.4v0.2L55.9,86.2L55.9,86.2z
		 M56.2,83.8v-0.2h1.1v-0.4h0.2v0.4h1.1v0.2H56.2z M58.5,86.6V88h-2.1v-1.4H58.5z M57.4,84.3c-0.1,0-0.3,0-0.4,0s-0.2,0.1-0.3,0.1
		c-0.1,0-0.1,0.1-0.2,0.2c0,0.1-0.1,0.1-0.1,0.2c0,0.1,0.1,0.3,0.2,0.3c0.1,0.1,0.4,0.1,0.6,0.1c0.3,0,0.5,0,0.6-0.1
		c0.1-0.1,0.2-0.2,0.2-0.3c0-0.1,0-0.1-0.1-0.2c0-0.1-0.1-0.1-0.2-0.2c-0.1,0-0.2-0.1-0.3-0.1C57.7,84.3,57.6,84.3,57.4,84.3z
		 M58.3,86.8h-1.7v0.9h1.7V86.8z"/>
	<path d="M61.1,86.7c-0.1,0-0.1,0-0.2,0c-0.1,0-0.2,0-0.3,0h-1.3v-0.3h0.4l0-2.2h0.2l0,2.2h0.5l0-2.2h0.2l0,2.2c0.1,0,0.2,0,0.3,0
		c0.1,0,0.1,0,0.2,0L61.1,86.7z M59.4,83.9v-0.3H61v0.3H59.4z M60.9,85.1h0.5v-1.8h0.2v4.6h-0.2v-2.6h-0.5V85.1z M62,88.1v-4.9h0.2
		v4.9H62z"/>
	<path d="M63.9,86.9c-0.1,0-0.3,0-0.4-0.1c-0.1-0.1-0.2-0.2-0.3-0.4c-0.1-0.1-0.1-0.3-0.2-0.5c0-0.2-0.1-0.4-0.1-0.7s0-0.5,0.1-0.7
		c0-0.2,0.1-0.4,0.2-0.5c0.1-0.1,0.2-0.3,0.3-0.3c0.1-0.1,0.2-0.1,0.4-0.1c0.1,0,0.3,0,0.4,0.1s0.2,0.2,0.3,0.4
		c0.1,0.1,0.1,0.3,0.2,0.5c0,0.2,0.1,0.4,0.1,0.7c0,0.2,0,0.5-0.1,0.7c0,0.2-0.1,0.4-0.2,0.5c-0.1,0.1-0.2,0.3-0.3,0.4
		C64.2,86.8,64,86.9,63.9,86.9z M63.9,83.8c-0.1,0-0.2,0-0.3,0.1s-0.1,0.2-0.2,0.3c-0.1,0.1-0.1,0.3-0.1,0.5c0,0.2,0,0.4,0,0.5
		c0,0.2,0,0.4,0,0.5c0,0.2,0.1,0.3,0.1,0.5c0.1,0.1,0.1,0.2,0.2,0.3s0.2,0.1,0.3,0.1s0.2,0,0.3-0.1c0.1-0.1,0.1-0.2,0.2-0.3
		s0.1-0.3,0.1-0.5c0-0.2,0-0.3,0-0.5c0-0.2,0-0.4,0-0.6s-0.1-0.3-0.1-0.4s-0.1-0.2-0.2-0.3C64.1,83.8,64,83.8,63.9,83.8z M65.4,88.1
		v-4.9h0.2v4.9H65.4z"/>
	<path d="M68.2,86.9c-0.1-0.1-0.1-0.1-0.2-0.2c-0.1-0.1-0.1-0.2-0.2-0.2c-0.1-0.1-0.1-0.2-0.2-0.3c0-0.1-0.1-0.2-0.1-0.3
		c0-0.1-0.1-0.2-0.1-0.3s-0.1-0.2-0.1-0.3c0,0.2-0.1,0.3-0.1,0.5c-0.1,0.2-0.1,0.3-0.2,0.5c-0.1,0.2-0.1,0.3-0.2,0.4
		c-0.1,0.1-0.2,0.2-0.2,0.3l-0.2-0.2c0.1-0.1,0.1-0.2,0.2-0.3c0.1-0.1,0.1-0.2,0.2-0.3c0.1-0.1,0.1-0.2,0.2-0.4
		c0.1-0.1,0.1-0.3,0.1-0.4s0.1-0.3,0.1-0.4c0-0.1,0-0.3,0-0.4v-0.6h-0.7v-0.3h1.7v0.3h-0.7v0.6c0,0.1,0,0.3,0,0.4s0.1,0.3,0.1,0.4
		s0.1,0.3,0.1,0.4c0.1,0.1,0.1,0.3,0.2,0.4s0.1,0.2,0.2,0.3c0.1,0.1,0.1,0.2,0.2,0.2L68.2,86.9z M68.9,88.1v-4.9H69v4.9H68.9z"/>
	<path d="M70.7,86.9c-0.1,0-0.2,0-0.3-0.1c-0.1-0.1-0.2-0.2-0.2-0.3c-0.1-0.1-0.1-0.3-0.1-0.5c0-0.2-0.1-0.5-0.1-0.8
		c0-0.3,0-0.5,0.1-0.8c0-0.2,0.1-0.4,0.1-0.5s0.1-0.2,0.2-0.3c0.1-0.1,0.2-0.1,0.3-0.1c0.1,0,0.2,0,0.3,0.1c0.1,0.1,0.2,0.1,0.2,0.3
		c0.1,0.1,0.1,0.3,0.1,0.5c0,0.2,0.1,0.4,0.1,0.7h0.5v-1.8H72V88h-0.2v-2.6h-0.5c0,0.3,0,0.5-0.1,0.7s-0.1,0.4-0.1,0.5
		c-0.1,0.1-0.1,0.2-0.2,0.3C70.8,86.8,70.8,86.9,70.7,86.9z M70.7,83.8c-0.1,0-0.1,0-0.2,0.1c-0.1,0.1-0.1,0.1-0.2,0.3
		c0,0.1-0.1,0.3-0.1,0.4c0,0.2,0,0.4,0,0.6c0,0.2,0,0.5,0,0.6c0,0.2,0.1,0.3,0.1,0.4c0,0.1,0.1,0.2,0.2,0.3c0.1,0.1,0.1,0.1,0.2,0.1
		c0.1,0,0.1,0,0.2-0.1c0.1-0.1,0.1-0.1,0.2-0.3c0-0.1,0.1-0.3,0.1-0.4c0-0.2,0-0.4,0-0.6c0-0.2,0-0.5,0-0.6c0-0.2-0.1-0.3-0.1-0.4
		c0-0.1-0.1-0.2-0.2-0.3C70.8,83.8,70.7,83.8,70.7,83.8z M72.4,88.1v-4.9h0.2v4.9H72.4z"/>
	<path d="M75.2,86.8c-0.1-0.1-0.2-0.2-0.3-0.3c-0.1-0.1-0.2-0.3-0.2-0.4s-0.1-0.3-0.2-0.5c-0.1-0.2-0.1-0.3-0.1-0.5
		c0,0.2-0.1,0.3-0.1,0.5c-0.1,0.2-0.1,0.3-0.2,0.5s-0.2,0.3-0.2,0.4c-0.1,0.1-0.2,0.3-0.3,0.4l-0.2-0.2c0.1-0.1,0.2-0.3,0.3-0.4
		c0.1-0.2,0.2-0.4,0.3-0.6c0.1-0.2,0.1-0.4,0.2-0.7c0-0.2,0.1-0.5,0.1-0.7v-0.8h0.2v0.8c0,0.2,0,0.5,0.1,0.7c0,0.2,0.1,0.4,0.2,0.6
		s0.2,0.4,0.3,0.5c0.1,0.2,0.2,0.3,0.3,0.4L75.2,86.8z M75.9,88.1v-3h-0.8v-0.3h0.8v-1.6h0.2v4.9L75.9,88.1L75.9,88.1z"/>
	<path d="M11.6,92.3c0,0-0.1,0-0.2,0s-0.1,0-0.2,0c-0.1,0-0.2,0-0.3,0c-0.1,0-0.2,0-0.3,0c-0.2,0-0.5,0-0.7,0c-0.2,0-0.4,0-0.5,0
		l0-0.3c0.1,0,0.3,0,0.4,0c0.2,0,0.3,0,0.6,0v-0.5c-0.1,0-0.2,0-0.3-0.1c-0.1,0-0.2-0.1-0.2-0.1c-0.1-0.1-0.1-0.1-0.1-0.2
		c0-0.1,0-0.2,0-0.3c0-0.1,0-0.2,0.1-0.3c0-0.1,0.1-0.2,0.2-0.2c0.1-0.1,0.2-0.1,0.3-0.1c0.1,0,0.2,0,0.3,0c0.1,0,0.2,0,0.3,0
		c0.1,0,0.2,0.1,0.3,0.1c0.1,0.1,0.1,0.1,0.2,0.2c0,0.1,0.1,0.2,0.1,0.3c0,0.1,0,0.2,0,0.3c0,0.1-0.1,0.2-0.1,0.2s-0.1,0.1-0.2,0.1
		c-0.1,0-0.2,0.1-0.3,0.1v0.5c0.1,0,0.2,0,0.3,0c0.1,0,0.2,0,0.3,0c0.1,0,0.2,0,0.2,0c0.1,0,0.1,0,0.2,0L11.6,92.3z M9.5,90v-0.2
		h0.9v-0.5h0.2v0.5h0.9V90H9.5z M10.5,90.5c-0.1,0-0.2,0-0.2,0c-0.1,0-0.1,0-0.2,0.1s-0.1,0.1-0.1,0.1c0,0.1,0,0.1,0,0.2
		s0,0.1,0,0.2c0,0.1,0.1,0.1,0.1,0.1c0.1,0,0.1,0.1,0.2,0.1c0.1,0,0.2,0,0.2,0c0.1,0,0.2,0,0.2,0c0.1,0,0.1,0,0.2-0.1
		c0.1,0,0.1-0.1,0.1-0.1c0-0.1,0-0.1,0-0.2s0-0.1,0-0.2c0-0.1-0.1-0.1-0.1-0.1s-0.1-0.1-0.2-0.1C10.6,90.5,10.5,90.5,10.5,90.5z
		 M11.8,94.2v-1.1H9.9v-0.2H12v1.3H11.8z M11.8,92.6v-3.3H12v1.7h0.5v0.3H12v1.4L11.8,92.6L11.8,92.6z"/>
	<path d="M13.9,91.9c-0.1,0-0.2,0-0.3-0.1s-0.2-0.1-0.3-0.3c-0.1-0.1-0.1-0.2-0.2-0.4c0-0.1-0.1-0.3-0.1-0.5c0-0.2,0-0.3,0.1-0.5
		c0-0.2,0.1-0.3,0.2-0.4c0.1-0.1,0.2-0.2,0.3-0.2c0.1-0.1,0.2-0.1,0.3-0.1c0.1,0,0.2,0,0.3,0.1c0.1,0.1,0.2,0.1,0.3,0.2
		c0.1,0.1,0.1,0.2,0.2,0.4c0,0.1,0.1,0.3,0.1,0.5c0,0.2,0,0.3-0.1,0.5c0,0.1-0.1,0.3-0.2,0.4c-0.1,0.1-0.2,0.2-0.3,0.3
		C14.2,91.9,14.1,91.9,13.9,91.9z M13.9,89.7c-0.1,0-0.2,0-0.3,0.1c-0.1,0-0.1,0.1-0.2,0.2c-0.1,0.1-0.1,0.2-0.1,0.3
		c0,0.1,0,0.2,0,0.4c0,0.1,0,0.3,0,0.4c0,0.1,0.1,0.2,0.1,0.3s0.1,0.2,0.2,0.2c0.1,0,0.2,0.1,0.3,0.1c0.1,0,0.2,0,0.3-0.1
		c0.1,0,0.1-0.1,0.2-0.2s0.1-0.2,0.1-0.3s0-0.3,0-0.4c0-0.1,0-0.3,0-0.4s-0.1-0.2-0.1-0.3c-0.1-0.1-0.1-0.2-0.2-0.2
		C14.1,89.7,14,89.7,13.9,89.7z M13.5,94v-1.6h0.2v1.3h1.9V94L13.5,94L13.5,94z M15.4,89.2h0.2v3.6h-0.2V89.2z"/>
	<path d="M16.4,90.3V90h0.9v-0.8h0.2V90h0.9v0.3H16.4z M17.4,92.9c-0.1,0-0.2,0-0.3-0.1s-0.2-0.1-0.3-0.2c-0.1-0.1-0.1-0.2-0.2-0.3
		c0-0.1-0.1-0.3-0.1-0.4c0-0.2,0-0.3,0.1-0.5c0-0.1,0.1-0.2,0.2-0.3c0.1-0.1,0.2-0.2,0.3-0.2c0.1,0,0.2-0.1,0.3-0.1s0.2,0,0.3,0.1
		c0.1,0,0.2,0.1,0.3,0.2c0.1,0.1,0.1,0.2,0.2,0.3s0.1,0.3,0.1,0.5c0,0.2,0,0.3-0.1,0.4c0,0.1-0.1,0.2-0.2,0.3
		c-0.1,0.1-0.2,0.2-0.3,0.2C17.6,92.9,17.5,92.9,17.4,92.9z M17.4,91c-0.1,0-0.2,0-0.2,0.1c-0.1,0-0.1,0.1-0.2,0.2s-0.1,0.2-0.1,0.3
		c0,0.1-0.1,0.2-0.1,0.3s0,0.3,0.1,0.4c0,0.1,0.1,0.2,0.1,0.3s0.1,0.1,0.2,0.2c0.1,0,0.2,0.1,0.2,0.1c0.1,0,0.2,0,0.2-0.1
		c0.1,0,0.1-0.1,0.2-0.2s0.1-0.2,0.1-0.3c0-0.1,0.1-0.2,0.1-0.4c0-0.1,0-0.2-0.1-0.3c0-0.1-0.1-0.2-0.1-0.3s-0.1-0.1-0.2-0.2
		C17.5,91,17.5,91,17.4,91z M18.9,91.7v2.5h-0.2v-4.9h0.2v2.2h0.6v0.3H18.9z"/>
	<path d="M21.6,91.5c-0.1-0.1-0.2-0.1-0.2-0.2s-0.2-0.2-0.2-0.3c-0.1-0.1-0.1-0.2-0.2-0.3c-0.1-0.1-0.1-0.2-0.1-0.3
		c0,0.1-0.1,0.2-0.1,0.3c-0.1,0.1-0.1,0.2-0.2,0.3s-0.1,0.2-0.2,0.3c-0.1,0.1-0.2,0.2-0.2,0.2l-0.2-0.2c0.1,0,0.1-0.1,0.2-0.2
		s0.1-0.1,0.2-0.2c0.1-0.1,0.1-0.2,0.2-0.3c0.1-0.1,0.1-0.2,0.1-0.3c0-0.1,0.1-0.2,0.1-0.3c0-0.1,0-0.2,0-0.4v-0.4h0.2v0.4
		c0,0.2,0,0.4,0.1,0.5c0,0.2,0.1,0.3,0.2,0.4c0.1,0.1,0.2,0.2,0.3,0.3c0.1,0.1,0.2,0.2,0.3,0.2L21.6,91.5z M20.5,94v-1.2h1.8v-0.6
		h-1.8V92h2v1.1h-1.8v0.7h1.9V94L20.5,94L20.5,94z M22.3,91.7v-2.5h0.2v2.5H22.3z"/>
	<path d="M25.9,92.2v2h-0.2v-2h-1.4v-0.3h3v0.3H25.9z M27.1,91.2c-0.1,0-0.2,0-0.2-0.1s-0.2-0.1-0.3-0.1c-0.1-0.1-0.2-0.1-0.2-0.2
		c-0.1-0.1-0.2-0.1-0.2-0.2c-0.1-0.1-0.1-0.2-0.2-0.3c-0.1-0.1-0.1-0.2-0.1-0.3c0,0.1-0.1,0.2-0.1,0.3c-0.1,0.1-0.1,0.2-0.2,0.2
		c-0.1,0.1-0.1,0.2-0.2,0.2c-0.1,0.1-0.2,0.1-0.2,0.2c-0.1,0.1-0.2,0.1-0.2,0.1c-0.1,0-0.2,0.1-0.2,0.1L24.5,91c0.1,0,0.2,0,0.3-0.1
		c0.1,0,0.2-0.1,0.3-0.1c0.1-0.1,0.2-0.1,0.3-0.2s0.2-0.2,0.2-0.3s0.1-0.2,0.2-0.3c0-0.1,0.1-0.2,0.1-0.4v-0.2h0.2v0.2
		c0,0.1,0,0.3,0.1,0.4c0,0.1,0.1,0.2,0.2,0.3c0.1,0.1,0.1,0.2,0.2,0.3c0.1,0.1,0.2,0.2,0.3,0.2c0.1,0.1,0.2,0.1,0.3,0.1
		c0.1,0,0.2,0.1,0.3,0.1L27.1,91.2z"/>
	<path d="M29.8,91.7c-0.1,0-0.2,0-0.3-0.1c-0.1-0.1-0.2-0.1-0.3-0.2c-0.1-0.1-0.1-0.2-0.2-0.4S29,90.7,29,90.6c0-0.2,0-0.3,0.1-0.5
		s0.1-0.3,0.2-0.4c0.1-0.1,0.2-0.2,0.3-0.2c0.1-0.1,0.2-0.1,0.3-0.1s0.2,0,0.3,0.1c0.1,0.1,0.2,0.1,0.3,0.2c0.1,0.1,0.1,0.2,0.2,0.4
		s0.1,0.3,0.1,0.5c0,0.2,0,0.3-0.1,0.5c0,0.1-0.1,0.3-0.2,0.4c-0.1,0.1-0.2,0.2-0.3,0.2C30.1,91.7,29.9,91.7,29.8,91.7z M30.3,93.7
		c-0.1-0.1-0.2-0.2-0.3-0.3c-0.1-0.1-0.1-0.3-0.2-0.4c0,0.1-0.1,0.2-0.1,0.3s-0.1,0.2-0.1,0.3s-0.1,0.2-0.2,0.3
		c-0.1,0.1-0.1,0.1-0.2,0.2l-0.2-0.2c0.1-0.1,0.2-0.2,0.3-0.3s0.2-0.2,0.2-0.3c0.1-0.1,0.1-0.3,0.1-0.4s0.1-0.3,0.1-0.4v-0.1h0.2
		v0.1c0,0.1,0,0.2,0,0.4c0,0.1,0.1,0.2,0.1,0.3c0.1,0.1,0.1,0.2,0.2,0.3c0.1,0.1,0.1,0.1,0.2,0.2L30.3,93.7z M29.8,89.6
		c-0.1,0-0.2,0-0.3,0.1c-0.1,0-0.1,0.1-0.2,0.2c-0.1,0.1-0.1,0.2-0.1,0.3s0,0.2,0,0.4c0,0.1,0,0.3,0,0.4s0.1,0.2,0.1,0.3
		s0.1,0.1,0.2,0.2s0.2,0.1,0.3,0.1s0.2,0,0.3-0.1c0.1,0,0.1-0.1,0.2-0.2c0.1-0.1,0.1-0.2,0.1-0.3s0-0.2,0-0.4c0-0.1,0-0.3,0-0.4
		c0-0.1-0.1-0.2-0.1-0.3c-0.1-0.1-0.1-0.1-0.2-0.2C30,89.7,29.9,89.6,29.8,89.6z M31.7,94c-0.1,0-0.1-0.1-0.2-0.2
		c-0.1-0.1-0.1-0.2-0.2-0.2c-0.1-0.1-0.1-0.2-0.2-0.3c0-0.1-0.1-0.2-0.1-0.3c0,0.1-0.1,0.2-0.1,0.3s-0.1,0.2-0.1,0.3
		c-0.1,0.1-0.1,0.2-0.2,0.3c-0.1,0.1-0.1,0.1-0.2,0.2l-0.1-0.2c0.1-0.1,0.2-0.2,0.3-0.3c0.1-0.1,0.2-0.2,0.2-0.3
		c0.1-0.1,0.1-0.3,0.1-0.4c0-0.1,0.1-0.3,0.1-0.5v-0.1h0.2v0.1c0,0.2,0,0.3,0.1,0.5c0,0.1,0.1,0.3,0.1,0.4c0.1,0.1,0.1,0.2,0.2,0.3
		s0.2,0.2,0.2,0.2L31.7,94z M31.3,89.2h0.2V92h-0.2V89.2z"/>
	<path d="M32.3,91.7v-0.3h3v0.3H32.3z M35.1,90.9c-0.1,0-0.2-0.1-0.4-0.1c-0.1-0.1-0.2-0.1-0.4-0.2s-0.2-0.2-0.3-0.3
		c-0.1-0.1-0.2-0.2-0.2-0.4c-0.1,0.1-0.1,0.3-0.2,0.4c-0.1,0.1-0.2,0.2-0.3,0.3s-0.2,0.2-0.3,0.2c-0.1,0.1-0.2,0.1-0.4,0.1l-0.1-0.2
		c0.1,0,0.2,0,0.3-0.1c0.1,0,0.2-0.1,0.3-0.1c0.1-0.1,0.2-0.1,0.3-0.2c0.1-0.1,0.2-0.2,0.2-0.3c0.1-0.1,0.1-0.2,0.1-0.3
		s0.1-0.2,0.1-0.3v-0.1h0.2v0.1c0,0.1,0,0.2,0.1,0.3c0,0.1,0.1,0.2,0.1,0.3s0.1,0.2,0.2,0.3c0.1,0.1,0.2,0.1,0.3,0.2
		c0.1,0.1,0.2,0.1,0.3,0.1c0.1,0,0.2,0.1,0.3,0.1L35.1,90.9z M32.8,94v-1.8H33v0.6h1.6v-0.6h0.2V94H32.8z M34.6,93.1H33v0.7h1.6
		V93.1z"/>
	<path d="M38,92.6c0,0-0.1,0-0.1,0c0,0-0.1,0-0.1,0c-0.1,0-0.1,0-0.2,0c-0.1,0-0.1,0-0.1,0c0,0-0.1,0-0.2,0c-0.1,0-0.2,0-0.3,0
		c-0.1,0-0.2,0-0.4,0c-0.1,0-0.3,0-0.5,0v-3h0.2v2.8h0.7c0.2,0,0.4,0,0.5,0c0.1,0,0.3,0,0.3-0.1L38,92.6z M38.3,94.2v-4.9h0.2v4.9
		H38.3z"/>
	<path d="M41.3,92.7c-0.1,0-0.2,0-0.3,0c-0.1,0-0.2,0-0.3,0c-0.1,0-0.3,0-0.5,0c-0.2,0-0.5,0-0.8,0v-3.1H41v0.3h-1.3v2.5
		c0.2,0,0.4,0,0.6,0c0.2,0,0.3,0,0.5,0c0.1,0,0.2,0,0.3,0c0.1,0,0.1,0,0.2,0L41.3,92.7z M41.8,91.5v2.7h-0.2v-4.9h0.2v2h0.6v0.3
		L41.8,91.5L41.8,91.5z"/>
</g>
<g>
	<g>
		<path d="M12.3,53c0-2.4,0.5-4.4,1.3-6.1c0.9-1.7,2.4-3.4,4.5-5.1c0.3-0.3,0.8-0.6,1.4-1.1c2.9-2.2,4.3-4.3,4.3-6.3
			c0-1.2-0.3-2.1-0.9-2.8c-0.6-0.7-1.4-1-2.5-1c-1.1,0-2,0.4-2.7,1.3c-0.6,0.8-0.9,2.1-0.9,3.6v0.2h-4.2c0-3.1,0.7-5.5,2.1-7.1
			s3.4-2.5,6-2.5c2.4,0,4.2,0.8,5.6,2.3c1.4,1.5,2.1,3.5,2.1,6c0,1.8-0.4,3.3-1.1,4.7c-0.7,1.3-2.2,2.8-4.3,4.5
			c-0.4,0.4-1.1,0.8-1.9,1.4c-2,1.5-3.1,2.7-3.4,3.5h10.4V53L12.3,53L12.3,53z"/>
	</g>
	<path d="M31,41.3v-2.1h28.8v2.1H31z M45.4,55c-3.6,0-6.4-0.5-8.3-1.5c-1.9-1-2.9-2.4-2.9-4.2s1-3.2,2.9-4.2c1.9-1,4.7-1.5,8.3-1.5
		s6.4,0.5,8.3,1.5c1.9,1,2.9,2.4,2.9,4.2c0,1.8-1,3.2-2.9,4.2C51.8,54.5,49,55,45.4,55z M35.1,36.3V26h20.8v2.1H37.7v6.1h18.5v2.1
		C56.2,36.3,35.1,36.3,35.1,36.3z M45.4,45.7c-2.8,0-4.9,0.3-6.3,1c-1.4,0.7-2.1,1.5-2.1,2.7s0.7,2,2.1,2.7s3.5,1,6.3,1
		s4.9-0.3,6.3-1c1.4-0.6,2.1-1.5,2.1-2.7c0-1.1-0.7-2-2.1-2.7C50.3,46,48.2,45.7,45.4,45.7z"/>
	<path d="M59.8,39.1V37h21.2c0.4-2.7,1.2-4.3,1.7-8.3H63.4v-2.1h22c-0.1,3.5-1.6,8.1-1.8,10.5h5.2v2.1
		C88.8,39.1,59.8,39.1,59.8,39.1z M63.7,54V41.7h2.6v3.9h16v-3.9h2.6V54C84.8,54,63.7,54,63.7,54z M82.2,47.7h-16v4.2h16V47.7z"/>
</g>
</svg>
