<?xml version="1.0" encoding="utf-8"?>
<!-- Generator: Adobe Illustrator 26.0.3, SVG Export Plug-In . SVG Version: 6.00 Build 0)  -->
<svg version="1.1" id="Layer_1" xmlns="http://www.w3.org/2000/svg" xmlns:xlink="http://www.w3.org/1999/xlink" x="0px" y="0px"
	 width="38.1px" height="27.1px" viewBox="0 0 38.1 27.1" style="enable-background:new 0 0 38.1 27.1;" xml:space="preserve">
<style type="text/css">
	.st0{fill-rule:evenodd;clip-rule:evenodd;fill:#231F20;}
</style>
<g>
	<path class="st0" d="M14.9,23v4l0,0c-0.4,0-0.9,0.1-1.3,0.1C6.1,27.1,0,21,0,13.5S6.1,0,13.5,0c0.5,0,0.9,0,1.3,0.1l0,0v4l0,0
		C14.4,4,14,4,13.5,4C8.3,4,4,8.3,4,13.5c0,5.3,4.3,9.6,9.6,9.6C14,23.1,14.4,23.1,14.9,23L14.9,23L14.9,23L14.9,23z"/>
	<path class="st0" d="M27.5,11.5h7.8v4.1h-7.8l0,0c0.9,4.3,4.8,7.5,9.3,7.5c0.5,0,0.9,0,1.3-0.1l0,0v4l0,0c-0.4,0-0.9,0.1-1.3,0.1
		c-7.5,0-13.5-6.1-13.5-13.5S29.3,0,36.8,0c0.5,0,0.9,0,1.3,0.1l0,0v4l0,0C37.7,4,37.3,4,36.8,4C32.2,4,28.4,7.2,27.5,11.5
		L27.5,11.5L27.5,11.5L27.5,11.5z"/>
</g>
</svg>
