<?xml version="1.0" encoding="UTF-8" standalone="no"?>
<!-- Created with Inkscape (http://www.inkscape.org/) -->

<svg
   xmlns:dc="http://purl.org/dc/elements/1.1/"
   xmlns:cc="http://creativecommons.org/ns#"
   xmlns:rdf="http://www.w3.org/1999/02/22-rdf-syntax-ns#"
   xmlns:svg="http://www.w3.org/2000/svg"
   xmlns="http://www.w3.org/2000/svg"
   xmlns:sodipodi="http://sodipodi.sourceforge.net/DTD/sodipodi-0.dtd"
   xmlns:inkscape="http://www.inkscape.org/namespaces/inkscape"
   width="12.631mm"
   height="12.631mm"
   viewBox="0 0 210 297"
   version="1.1"
   id="svg8"
   inkscape:version="0.92.2 (5c3e80d, 2017-08-06)"
   sodipodi:docname="sample.svg">
  <defs
     id="defs2" />
  <sodipodi:namedview
     id="base"
     pagecolor="#ffffff"
     bordercolor="#666666"
     borderopacity="1.0"
     inkscape:pageopacity="0.0"
     inkscape:pageshadow="2"
     inkscape:zoom="7.9195959"
     inkscape:cx="6.4449199"
     inkscape:cy="22.369941"
     inkscape:document-units="mm"
     inkscape:current-layer="layer1"
     showgrid="false"
     inkscape:window-width="2560"
     inkscape:window-height="1057"
     inkscape:window-x="-8"
     inkscape:window-y="-8"
     inkscape:window-maximized="1" />
  <metadata
     id="metadata5">
    <rdf:RDF>
      <cc:Work
         rdf:about="">
        <dc:format>image/svg+xml</dc:format>
        <dc:type
           rdf:resource="http://purl.org/dc/dcmitype/StillImage" />
        <dc:title />
      </cc:Work>
    </rdf:RDF>
  </metadata>
  <g
     inkscape:label="Layer 1"
     inkscape:groupmode="layer"
     id="layer1">
    <path
       sodipodi:nodetypes="ccccccccccccccccccccccccccccccccc"
       inkscape:connector-curvature="0"
       id="path822"
       d="m 83.537242,16.799046 -6.46952,26.875966 c -10.64352,2.623313 -20.83281,6.828516 -30.22682,12.477858 L -12.319695,29.186196 -21.3437,38.028681 9.7992223,93.046726 c -5.78579,9.515064 -10.08578998,19.857004 -12.7516202,30.669044 l -26.8951231,6.46945 v 39.34065 l 26.8761931,6.46984 c 2.64457022,10.74391 6.9027502,21.02451 12.6294402,30.49177 l -29.0327173,57.08583 8.946077,8.92303 57.08623,-29.07285 c 9.44416,5.7058 19.69669,9.9509 30.41002,12.5919 l 6.46952,26.89667 h 39.343538 l 6.46949,-26.87597 c 10.64355,-2.62331 20.83277,-6.82852 30.22677,-12.47748 l 57.00411,29.1229 9.02616,-8.84285 -28.98858,-57.17429 c 5.78582,-9.51468 10.08582,-19.857 12.7516,-30.66866 l 26.89516,-6.46984 v -39.34065 l -26.87613,-6.46945 c -2.64391,-10.74391 -6.90147,-21.02489 -12.62745,-30.492149 l 29.03079,-57.085832 -8.94617,-8.923023 -57.08625,29.072845 c -9.44411,-5.705798 -19.69666,-9.950896 -30.41001,-12.591522 l -6.46949,-26.897043 z"
       style="opacity:1;vector-effect:none;fill:#000000;fill-opacity:1;stroke:#00ffff;stroke-width:32.50943756;stroke-linecap:round;stroke-linejoin:miter;stroke-miterlimit:4;stroke-dasharray:none;stroke-dashoffset:0;stroke-opacity:1" />
    <path
       style="opacity:1;vector-effect:none;fill:#000000;fill-opacity:1;stroke:#000000;stroke-width:4.07526302;stroke-linecap:round;stroke-linejoin:miter;stroke-miterlimit:4;stroke-dasharray:none;stroke-dashoffset:0;stroke-opacity:1"
       d="m 83.537242,16.799046 -6.46952,26.875966 c -10.64352,2.623313 -20.83281,6.828516 -30.22682,12.477858 L -12.319695,29.186196 -21.3437,38.028681 9.7992223,93.046726 c -5.78579,9.515064 -10.08578998,19.857004 -12.7516202,30.669044 l -26.8951231,6.46945 v 39.34065 l 26.8761931,6.46984 c 2.64457022,10.74391 6.9027502,21.02451 12.6294402,30.49177 l -29.0327173,57.08583 8.946077,8.92303 57.08623,-29.07285 c 9.44416,5.7058 19.69669,9.9509 30.41002,12.5919 l 6.46952,26.89667 h 39.343538 l 6.46949,-26.87597 c 10.64355,-2.62331 20.83277,-6.82852 30.22677,-12.47748 l 57.00411,29.1229 9.02616,-8.84285 -28.98858,-57.17429 c 5.78582,-9.51468 10.08582,-19.857 12.7516,-30.66866 l 26.89516,-6.46984 v -39.34065 l -26.87613,-6.46945 c -2.64391,-10.74391 -6.90147,-21.02489 -12.62745,-30.492149 l 29.03079,-57.085832 -8.94617,-8.923023 -57.08625,29.072845 c -9.44411,-5.705798 -19.69666,-9.950896 -30.41001,-12.591522 l -6.46949,-26.897043 z"
       id="path881"
       inkscape:connector-curvature="0"
       sodipodi:nodetypes="ccccccccccccccccccccccccccccccccc" />
    <ellipse
       style="opacity:1;vector-effect:none;fill:none;fill-opacity:1;stroke:#ffffff;stroke-width:32.50943756;stroke-linecap:round;stroke-linejoin:miter;stroke-miterlimit:4;stroke-dasharray:none;stroke-dashoffset:0;stroke-opacity:1"
       id="path926"
       cx="103.20904"
       cy="149.85551"
       rx="53.912888"
       ry="53.912502" />
  </g>
</svg>
