<?xml version="1.0" encoding="utf-8"?>
<!-- Generator: Adobe Illustrator 26.0.3, SVG Export Plug-In . SVG Version: 6.00 Build 0)  -->
<svg version="1.1" id="Layer_1" xmlns="http://www.w3.org/2000/svg" xmlns:xlink="http://www.w3.org/1999/xlink" x="0px" y="0px"
	 width="28.8px" height="28.8px" viewBox="0 0 28.8 28.8" style="enable-background:new 0 0 28.8 28.8;" xml:space="preserve">
<style type="text/css">
	.st0{clip-path:url(#SVGID_00000170958923694966217630000000872310995402028434_);fill:#FFFFFF;}
</style>
<rect y="0" width="28.8" height="28.8"/>
<g>
	<defs>
		<rect id="SVGID_1_" y="0" width="28.8" height="28.8"/>
	</defs>
	<clipPath id="SVGID_00000064356356257879702240000010680891615452094142_">
		<use xlink:href="#SVGID_1_"  style="overflow:visible;"/>
	</clipPath>
	<path style="clip-path:url(#SVGID_00000064356356257879702240000010680891615452094142_);fill:#FFFFFF;" d="M20.8,25.1l-5.5-13.8
		c-0.3-0.9-1.5-0.9-1.9,0L8,25.1H20.8z M18.8,23.8h-6.6l5.5-2.7L18.8,23.8z M14.4,12.6l2.6,6.5L13.1,16L14.4,12.6z M12.5,17.4
		l3.6,2.9l-6,3L12.5,17.4z M22,18.8l-1.4-1.4c1.6-1.6,2.6-3.8,2.6-6.2s-1-4.6-2.6-6.2L22,3.5c2,2,3.2,4.7,3.2,7.6S24,16.9,22,18.8
		 M8.2,17.4l-1.4,1.4c-2-2-3.2-4.7-3.2-7.6s1.2-5.7,3.2-7.6L8.2,5c-1.6,1.6-2.6,3.8-2.6,6.2S6.6,15.8,8.2,17.4 M17.7,7.8l1.4-1.4
		c1.2,1.2,2,2.9,2,4.8c0,1.9-0.8,3.6-2,4.8l-1.4-1.4c0.9-0.9,1.4-2,1.4-3.3C19.1,9.9,18.6,8.7,17.7,7.8 M7.7,11.2
		c0-1.9,0.8-3.6,2-4.8l1.4,1.4c-0.9,0.9-1.4,2-1.4,3.3c0,1.3,0.5,2.5,1.4,3.3l-1.4,1.4C8.4,14.7,7.7,13,7.7,11.2"/>
</g>
</svg>
