<?xml version="1.0" encoding="UTF-8" standalone="no"?>
<!-- Created with Inkscape (http://www.inkscape.org/) -->

<svg
   xmlns:dc="http://purl.org/dc/elements/1.1/"
   xmlns:cc="http://creativecommons.org/ns#"
   xmlns:rdf="http://www.w3.org/1999/02/22-rdf-syntax-ns#"
   xmlns:svg="http://www.w3.org/2000/svg"
   xmlns="http://www.w3.org/2000/svg"
   xmlns:sodipodi="http://sodipodi.sourceforge.net/DTD/sodipodi-0.dtd"
   xmlns:inkscape="http://www.inkscape.org/namespaces/inkscape"
   width="256"
   height="256"
   viewBox="0 0 67.733332 67.733335"
   version="1.1"
   id="svg8"
   sodipodi:docname="dfico.svg"
   inkscape:version="0.92.2 (5c3e80d, 2017-08-06)">
  <defs
     id="defs2" />
  <sodipodi:namedview
     id="base"
     pagecolor="#ffffff"
     bordercolor="#666666"
     borderopacity="1.0"
     inkscape:pageopacity="0.0"
     inkscape:pageshadow="2"
     inkscape:zoom="0.98994949"
     inkscape:cx="141.82952"
     inkscape:cy="380.87176"
     inkscape:document-units="mm"
     inkscape:current-layer="layer3"
     showgrid="false"
     units="px"
     showguides="true"
     inkscape:guide-bbox="true"
     inkscape:window-width="1287"
     inkscape:window-height="826"
     inkscape:window-x="695"
     inkscape:window-y="115"
     inkscape:window-maximized="0" />
  <metadata
     id="metadata5">
    <rdf:RDF>
      <cc:Work
         rdf:about="">
        <dc:format>image/svg+xml</dc:format>
        <dc:type
           rdf:resource="http://purl.org/dc/dcmitype/StillImage" />
        <dc:title></dc:title>
      </cc:Work>
    </rdf:RDF>
  </metadata>
  <g
     inkscape:label="Background"
     inkscape:groupmode="layer"
     id="layer1"
     transform="translate(0,-229.26664)"
     style="display:inline" />
  <g
     inkscape:groupmode="layer"
     id="layer2"
     inkscape:label="D">
    <g
       aria-label="D"
       style="font-style:normal;font-variant:normal;font-weight:normal;font-stretch:normal;font-size:76.70022583px;line-height:1.25;font-family:Calibri;-inkscape-font-specification:Calibri;letter-spacing:0px;word-spacing:0px;fill:#8500ff;fill-opacity:1;stroke:#8500ff;stroke-width:5.43708277;stroke-miterlimit:4;stroke-dasharray:none;stroke-opacity:1"
       id="text4514"
       transform="matrix(1.3098438,0,0,1.3098438,-15.118223,-9.7851533)"
       mask="none">
      <path
         d="m 60.939875,32.699314 c 0,4.00263 -0.512241,7.504932 -1.536724,10.506905 -1.024483,2.978147 -2.484956,5.410816 -4.502959,7.433456 -2.018003,2.022639 -4.360008,3.418913 -7.21903,4.395746 -2.859022,0.976833 -6.266023,1.465249 -10.221003,1.465249 H 16.765972 c -0.547979,0 -1.072134,-0.178689 -1.572462,-0.536067 C 14.717006,55.5834 14.478754,54.928207 14.478754,53.999025 V 12.757636 c 0,-0.929182 0.238252,-1.572462 0.714756,-1.92984 0.500328,-0.381202 1.024483,-0.571804 1.572462,-0.571804 h 21.373205 c 4.00263,0 7.385806,0.524154 10.149527,1.572462 2.763721,1.024483 5.074764,2.513557 6.933128,4.467222 1.882189,1.92984 3.299788,4.27662 4.252795,7.04034 0.976832,2.763722 1.465248,5.884821 1.465248,9.363298 z"
         style="font-size:76.48280334px;fill:#8500ff;fill-opacity:1;stroke:#8500ff;stroke-width:5.43708277;stroke-miterlimit:4;stroke-dasharray:none;stroke-opacity:1"
         id="path4523"
         inkscape:connector-curvature="0"
         sodipodi:nodetypes="sczssscsscsscccs"
         mask="none" />
    </g>
  </g>
  <g
     inkscape:groupmode="layer"
     id="layer3"
     inkscape:label="F">
    <g
       aria-label="F"
       style="font-style:normal;font-variant:normal;font-weight:normal;font-stretch:normal;font-size:84.66666412px;line-height:1.25;font-family:Calibri;-inkscape-font-specification:Calibri;letter-spacing:0px;word-spacing:0px;fill:#9b9bff;fill-opacity:1;stroke:none;stroke-width:0.26458332"
       id="text4518"
       transform="matrix(1.2189097,0,0,1.2189097,10.758962,-2.786076)">
      <path
         d="m 41.447148,12.494187 c -0.0545,0.381523 -0.169264,0.532118 -0.305522,0.777382 -0.136259,0.218014 -0.299768,0.381523 -0.490529,0.49053 -0.16351,0.109006 -0.340644,0.16351 -0.531406,0.16351 H 22.932847 V 27.31184 h 16.200875 c 0.190761,0 0.367896,0.0545 0.531406,0.16351 0.190762,0.08175 0.354272,0.231639 0.49053,0.449652 0.136257,0.218012 0.231638,0.517781 0.286142,0.899303 0.0545,0.35427 0.08175,1.25168 0.08175,1.823964 0,0.517781 -0.02725,0.967431 -0.08175,1.348955 -0.0545,0.35427 -0.149883,1.088169 -0.286142,1.333433 -0.136258,0.218013 -0.299768,0.395149 -0.49053,0.531406 -0.16351,0.109007 -0.340645,0.163509 -0.531406,0.163509 H 22.932847 v 18.462363 c 0,0.190761 -0.0545,0.381522 -0.163509,0.572283 -0.109006,0.16351 -0.299769,0.299769 -0.572284,0.408774 -0.272516,0.08175 -0.626788,0.149885 -1.062812,0.204387 -0.436026,0.08175 -3.178966,0.122633 -3.887508,0.122633 -0.654039,0 -3.383352,-0.04088 -3.846629,-0.122633 -0.463276,-0.0545 -0.831175,-0.12263 -1.10369,-0.204387 -0.272516,-0.109005 -0.463277,-0.245264 -0.572284,-0.408774 -0.109007,-0.190761 -0.16351,-0.381522 -0.16351,-0.572283 V 9.9506625 c 0,-1.0628126 0.272517,-1.798606 0.817548,-2.2073801 0.572285,-0.4360258 1.17182,-0.6546026 1.798607,-0.6540387 l 21.543456,0.019381 c 2.136855,1.453041 3.81034,2.8207186 5.726916,5.3855624 z"
         style="font-size:84.66666412px;fill:#afafff;fill-opacity:1;stroke:#afafff;stroke-width:1.64081061;stroke-miterlimit:4;stroke-dasharray:none;stroke-opacity:1"
         id="path4520"
         inkscape:connector-curvature="0"
         sodipodi:nodetypes="cccsccscccscccscscccscccsscscc" />
    </g>
  </g>
</svg>
